<svg width="392" height="238" viewBox="0 0 392 238" fill="none" xmlns="http://www.w3.org/2000/svg">
<path d="M40.68 142.101C44.581 147.033 51.933 155.145 52.332 155.353C60.036 159.379 57.962 163.92 54.867 164.017C51.411 164.124 47.291 159.117 45.849 160.7C44.406 162.283 50.208 165.693 52.953 167.571C63.738 174.947 62.133 179.332 58.811 179.768C37.496 182.562 23.024 174.051 10.53 167.131C-0.99381 160.749 -0.730208 165.196 2.04099 168.376C3.29499 169.815 6.31599 177.135 21.247 183.097C33.844 188.127 41.655 187.615 56.077 189.825C69.493 191.882 96.749 199.309 97.555 196.417C98.361 193.526 92.304 193.433 86.921 191.187C81.657 188.991 78.059 187.538 72.631 184.213C63.79 178.797 67.433 174.22 70.797 176.028C76.1 178.877 80.173 180.198 85.78 182.965C86.682 183.441 87.607 183.915 88.55 184.388C88.575 184.401 88.597 184.413 88.622 184.426L88.621 184.424C97.085 188.661 107.201 192.74 119.509 196.556C171.356 212.634 202.483 211.988 203.235 209.605C203.986 207.221 129.865 199.28 138.778 192.113C142.523 189.103 219.674 203.18 242.143 191.759C245.386 190.11 220.182 189.099 222.54 185.464C225.703 180.589 250.152 189.012 291.326 183.714C332.5 178.416 335.838 160.563 335.838 160.563L328.007 145.505L40.68 142.101Z" fill="url(#paint0_linear_90_544)"/>
<path d="M84.67 205.363C88.655 207.121 91.551 209.307 91.138 210.245C90.725 211.183 87.159 210.517 83.174 208.759C79.189 207 76.294 204.814 76.706 203.876C77.119 202.939 80.685 203.604 84.67 205.363Z" fill="url(#paint1_linear_90_544)"/>
<path d="M115.192 217.255C110.545 216.253 106.953 214.629 107.168 213.627C107.383 212.625 111.488 213.551 116.135 214.553C120.782 215.555 124.21 216.252 123.995 217.254C123.78 218.256 119.838 218.257 115.192 217.255Z" fill="url(#paint2_linear_90_544)"/>
<path d="M105.145 232.604C107.368 233.671 108.875 235.154 108.083 236.807C107.291 238.461 105.193 238.213 102.969 237.145C100.745 236.078 99.305 234.456 100.03 232.942C100.755 231.428 102.921 231.536 105.145 232.604Z" fill="url(#paint3_linear_90_544)"/>
<path d="M185.423 226.672C185.387 228.299 182.745 229.332 179.529 229.485C166.504 230.104 156.177 226.219 156.202 225.1C156.227 223.981 172.541 223.922 179.659 223.594C183.604 223.412 185.459 225.045 185.423 226.672Z" fill="url(#paint4_linear_90_544)"/>
<path d="M391.231 116.191C391.806 150.494 309.69 179.637 207.819 181.282C105.948 182.928 22.901 156.454 22.326 122.15C21.751 87.8471 103.868 58.7041 205.738 57.0591C307.609 55.4131 390.657 81.8871 391.231 116.191Z" fill="url(#paint5_radial_90_544)"/>
<path d="M286.199 111.371C286.45 126.367 251.047 139.099 207.124 139.809C163.202 140.518 127.391 128.937 127.14 113.941C126.889 98.9449 162.291 86.2129 206.214 85.5029C250.137 84.7929 285.948 96.3749 286.199 111.371Z" fill="url(#paint6_radial_90_544)"/>
<path d="M294.53 105.718C297.918 110.315 297.083 115.9 292.493 120.488C283.089 130.009 263.537 134.102 250.602 137.048C237.898 139.362 224.918 140.064 212.024 139.729C224.848 138.956 237.625 137.475 250.269 135.217C258.695 133.922 267.069 131.928 274.968 128.697C284.266 124.913 300.088 117.021 294.037 106.031C293.49 105.037 293.82 104.754 294.53 105.718Z" fill="url(#paint7_linear_90_544)"/>
<path d="M186.252 141.817C161.46 141.214 129.14 137.296 114.582 124.183C110.29 120.267 107.583 114.519 110.041 108.826C114.531 98.574 130.417 93.12 140.467 90.172C144.078 89.168 147.718 88.3 151.38 87.554C154.388 86.942 154.386 87.329 151.384 88.116C144.551 89.907 137.829 92.08 131.365 94.918C121 99.382 103.537 110.121 116.868 121.668C119.272 123.745 122.105 125.421 125.054 126.861C127.687 128.153 131.341 130.098 134.098 131.029C150.841 137.022 168.491 139.849 186.236 141.024C192.15 141.416 192.855 141.978 186.252 141.817Z" fill="url(#paint8_linear_90_544)"/>
<path d="M195.621 72.4259C218.947 72.1929 243.244 77.3889 262.647 89.1439C263.773 89.8259 263.235 90.7229 262.057 90.0229C255.696 86.2439 248.64 83.407 241.663 80.962C226.908 76.017 211.286 73.253 195.489 72.725C193.37 72.654 193.444 72.4479 195.621 72.4259Z" fill="url(#paint9_linear_90_544)"/>
<path d="M163.677 80.049C183.293 76.85 207.487 77.359 225.359 85.161C228.254 86.499 231.051 88.086 233.524 90.072C215.346 79.61 185.504 79.381 163.731 80.535C162.332 80.609 162.308 80.272 163.677 80.049Z" fill="white"/>
<path d="M176.243 173.359C155.701 171.577 135.382 167.184 116.422 159.057C101.453 152.349 81.972 140.366 83.225 121.594C83.577 115.657 85.646 109.858 88.921 104.921C101.575 86.069 127.95 77.873 149.202 73.625C149.747 73.521 150.293 73.418 150.839 73.318C155.332 72.492 155.351 72.683 150.877 73.603C150.339 73.714 149.803 73.826 149.266 73.941C129.4 78.444 107.438 85.483 93.741 101.321C91.396 104.186 89.304 107.446 87.903 110.884C84.91 118.227 84.418 126.928 88.395 134.01C94.574 145.065 106.102 151.87 117.284 157.142C135.987 165.428 156.053 170.131 176.394 172.428C186.544 173.575 186.459 174.245 176.243 173.359Z" fill="white"/>
<path d="M299.061 86.457C312.578 93.735 323.797 107.495 313.212 122.351C296.879 144.437 254.721 153.704 228.528 156.181C211.939 157.798 195.161 157.835 178.569 156.372C174.722 156.033 174.863 155.346 178.761 155.393C191.22 155.543 203.653 155.198 216.02 154.167C240.178 152.009 264.58 147.769 286.828 137.851C297.248 132.928 308.975 126.527 313.974 115.764C316.434 110.349 315.123 104.029 312.029 99.117C308.786 93.957 304.025 89.927 299.061 86.457Z" fill="#352ACF"/>
<path d="M351.294 90.4981C351.504 89.5841 367.63 94.8191 371.235 105.793C364.449 95.1151 350.944 92.0251 351.294 90.4981Z" fill="white"/>
<path d="M342.797 111.01C343.895 110.453 346.98 116.755 341.682 122.649C338.773 125.886 330.102 131.014 323.18 131.621C332.14 127.562 333.573 126.967 337.646 123.46C344.634 117.444 341.969 111.429 342.797 111.01Z" fill="white"/>
<path d="M252.741 31.9849C251.894 30.3569 278.087 32.9539 277.548 37.0589C277.007 41.1649 253.524 33.4909 252.741 31.9849Z" fill="url(#paint10_linear_90_544)"/>
<path d="M234.057 42.5499C233.475 41.4299 253.902 41.4389 254.024 44.5289C254.089 46.1589 234.596 43.5859 234.057 42.5499Z" fill="url(#paint11_linear_90_544)"/>
<path d="M88.851 60.523C88.762 58.848 83.805 57.749 77.78 58.067C71.755 58.385 66.943 60 67.032 61.674C67.121 63.349 72.078 64.448 78.103 64.13C84.128 63.812 88.94 62.197 88.851 60.523Z" fill="#030A24"/>
<path d="M5.13794 99.4791C74.7379 63.2791 128.398 58.4291 167.735 58.9951C185.294 59.2471 159.57 62.6511 162.907 67.7291C163.677 68.9011 185.304 70.5251 182.235 71.4841C153.394 70.1661 119.821 73.4821 118.219 73.7201C103.842 75.8531 38.0579 84.1031 5.13794 99.4791Z" fill="#6DA2EF"/>
<path d="M222.849 23.872C254.565 8.69099 285.586 26.576 298.286 45.8C267.734 -3.236 206.849 -11.12 157.053 14.78C152.653 17.069 149.032 20.167 146.5 23.693C154.169 22.832 169.307 21.683 176.396 23.27C185.435 25.293 186.457 32.156 171.694 32.185C157.434 32.213 144.633 27.274 142.872 31.855C142.748 32.496 142.646 33.141 142.594 33.79C142.593 33.799 142.591 33.806 142.59 33.815C142.071 40.117 133.692 38.163 116.457 38.044C110.645 38.004 100.076 39.386 90.807 44.206C84.114 47.688 100.052 42.325 116.663 42.482C124.553 42.556 142.358 45.038 152.333 51.633C152.389 51.67 152.441 51.699 152.496 51.734C158.201 55.75 166.571 59.1 178.17 61.169C185.226 62.427 264.931 72.118 277.478 95.842C281.105 102.701 288.958 118.516 238.551 137.092C272.779 131.265 280.749 122.258 284.593 116.951C293.983 103.987 288.635 82.567 266.029 74.23C241.644 65.237 219.728 61.411 212.157 47.888C207.537 39.636 208.492 30.745 222.849 23.872Z" fill="#030A24"/>
<path d="M198.015 51.1779C199.741 51.9649 200.78 53.3979 200.334 54.3769C199.888 55.3569 198.127 55.5129 196.401 54.7259C194.674 53.9389 193.07 52.2489 193.516 51.2699C193.961 50.2899 196.288 50.3909 198.015 51.1779Z" fill="white"/>
<path d="M174.458 43.605C175.277 43.74 175.866 44.299 175.775 44.854C175.684 45.409 174.947 45.75 174.128 45.615C173.309 45.48 172.451 44.876 172.542 44.32C172.634 43.765 173.64 43.47 174.458 43.605Z" fill="white"/>
<path d="M215.567 16.514C215.345 17.793 213.654 18.567 211.79 18.241C209.927 17.916 204.725 15.94 204.947 14.66C205.17 13.381 210.732 13.283 212.596 13.608C214.46 13.934 215.79 15.234 215.567 16.514Z" fill="white"/>
<path d="M201.978 39.837C201.404 38.735 221.11 39.466 220.532 42.356C219.954 45.246 202.508 40.856 201.978 39.837Z" fill="url(#paint12_linear_90_544)"/>
<defs>
<linearGradient id="paint0_linear_90_544" x1="165.732" y1="180.691" x2="160.416" y2="219.907" gradientUnits="userSpaceOnUse">
<stop stop-color="#FF0068"/>
<stop offset="1" stop-color="#352ACF"/>
</linearGradient>
<linearGradient id="paint1_linear_90_544" x1="84.067" y1="194.891" x2="83.435" y2="245.421" gradientUnits="userSpaceOnUse">
<stop stop-color="#FF0068"/>
<stop offset="1" stop-color="#352ACF"/>
</linearGradient>
<linearGradient id="paint2_linear_90_544" x1="115.821" y1="195.288" x2="115.189" y2="245.819" gradientUnits="userSpaceOnUse">
<stop stop-color="#FF0068"/>
<stop offset="1" stop-color="#352ACF"/>
</linearGradient>
<linearGradient id="paint3_linear_90_544" x1="102.776" y1="191.414" x2="100.14" y2="242.75" gradientUnits="userSpaceOnUse">
<stop stop-color="#FF0068"/>
<stop offset="1" stop-color="#352ACF"/>
</linearGradient>
<linearGradient id="paint4_linear_90_544" x1="171.168" y1="195.98" x2="170.536" y2="246.511" gradientUnits="userSpaceOnUse">
<stop stop-color="#FF0068"/>
<stop offset="1" stop-color="#352ACF"/>
</linearGradient>
<radialGradient id="paint5_radial_90_544" cx="0" cy="0" r="1" gradientUnits="userSpaceOnUse" gradientTransform="translate(208.43 103.972) rotate(-0.100387) scale(196.115 79.0834)">
<stop offset="0.4144" stop-color="#B4CFF7"/>
<stop offset="0.568" stop-color="#6DA2EF"/>
<stop offset="0.8829" stop-color="#FF4A8B"/>
<stop offset="1" stop-color="#FF0068"/>
</radialGradient>
<radialGradient id="paint6_radial_90_544" cx="0" cy="0" r="1" gradientUnits="userSpaceOnUse" gradientTransform="translate(210.428 131.922) rotate(0.104663) scale(110.036 45.8)">
<stop offset="0.4412" stop-color="#030A24"/>
<stop offset="0.6398" stop-color="#352ACF"/>
<stop offset="0.8233" stop-color="#6DA2EF"/>
<stop offset="0.9663" stop-color="#B4CFF7"/>
</radialGradient>
<linearGradient id="paint7_linear_90_544" x1="216.994" y1="149.285" x2="295.981" y2="108.202" gradientUnits="userSpaceOnUse">
<stop stop-color="#030A24"/>
<stop offset="1" stop-color="#352ACF"/>
</linearGradient>
<linearGradient id="paint8_linear_90_544" x1="164.03" y1="153.38" x2="131.388" y2="96.757" gradientUnits="userSpaceOnUse">
<stop stop-color="#030A24"/>
<stop offset="1" stop-color="#352ACF"/>
</linearGradient>
<linearGradient id="paint9_linear_90_544" x1="211.523" y1="68.1049" x2="254.701" y2="100.872" gradientUnits="userSpaceOnUse">
<stop stop-color="#352ACF"/>
<stop offset="1" stop-color="#030A24"/>
</linearGradient>
<linearGradient id="paint10_linear_90_544" x1="226.785" y1="11.1559" x2="452.495" y2="146.09" gradientUnits="userSpaceOnUse">
<stop offset="0.1844" stop-color="white"/>
<stop offset="0.2518" stop-color="#F4FFCA"/>
<stop offset="0.322" stop-color="#E9FF9B"/>
<stop offset="0.3966" stop-color="#E0FF72"/>
<stop offset="0.4744" stop-color="#D9FF4E"/>
<stop offset="0.5561" stop-color="#D3FF32"/>
<stop offset="0.6432" stop-color="#CEFF1C"/>
<stop offset="0.7381" stop-color="#CBFF0C"/>
<stop offset="0.8468" stop-color="#C9FF03"/>
<stop offset="1" stop-color="#C8FF00"/>
</linearGradient>
<linearGradient id="paint11_linear_90_544" x1="231.84" y1="36.0159" x2="457.551" y2="170.95" gradientUnits="userSpaceOnUse">
<stop offset="0.1844" stop-color="white"/>
<stop offset="0.2518" stop-color="#F4FFCA"/>
<stop offset="0.322" stop-color="#E9FF9B"/>
<stop offset="0.3966" stop-color="#E0FF72"/>
<stop offset="0.4744" stop-color="#D9FF4E"/>
<stop offset="0.5561" stop-color="#D3FF32"/>
<stop offset="0.6432" stop-color="#CEFF1C"/>
<stop offset="0.7381" stop-color="#CBFF0C"/>
<stop offset="0.8468" stop-color="#C9FF03"/>
<stop offset="1" stop-color="#C8FF00"/>
</linearGradient>
<linearGradient id="paint12_linear_90_544" x1="216.365" y1="43.889" x2="442.075" y2="178.823" gradientUnits="userSpaceOnUse">
<stop offset="0.1844" stop-color="white"/>
<stop offset="0.2518" stop-color="#F4FFCA"/>
<stop offset="0.322" stop-color="#E9FF9B"/>
<stop offset="0.3966" stop-color="#E0FF72"/>
<stop offset="0.4744" stop-color="#D9FF4E"/>
<stop offset="0.5561" stop-color="#D3FF32"/>
<stop offset="0.6432" stop-color="#CEFF1C"/>
<stop offset="0.7381" stop-color="#CBFF0C"/>
<stop offset="0.8468" stop-color="#C9FF03"/>
<stop offset="1" stop-color="#C8FF00"/>
</linearGradient>
</defs>
</svg>
