<svg width="468" height="410" viewBox="0 0 468 410" fill="none" xmlns="http://www.w3.org/2000/svg">
<g clip-path="url(#clip0_73_428)">
<path d="M52.5717 179.449C51.1109 176.64 77.8851 147.288 140.087 129.469C161.445 123.351 179.086 118.885 195.626 115.509C221.573 110.214 244.34 109.031 251.605 113.635C260.501 119.272 218.526 115.318 186.929 121.553C137.829 131.241 102.568 144.776 85.3023 155.669C68.0363 166.562 53.4074 181.055 52.5717 179.449Z" fill="url(#paint0_linear_73_428)"/>
<path d="M105.843 236.64C109.744 241.572 117.097 249.684 117.495 249.892C125.199 253.917 123.125 258.459 120.03 258.555C116.574 258.663 112.454 253.656 111.012 255.239C109.569 256.822 115.371 260.232 118.116 262.109C128.901 269.486 127.296 273.871 123.974 274.307C102.659 277.101 88.187 268.59 75.6932 261.67C64.1693 255.287 64.4329 259.734 67.204 262.915C68.4577 264.354 71.4788 271.674 86.4104 277.636C99.0073 282.666 106.818 282.154 121.24 284.364C134.656 286.421 161.912 293.848 162.718 290.956C163.524 288.064 157.467 287.972 152.084 285.726C146.82 283.53 143.223 282.077 137.794 278.752C128.953 273.336 132.596 268.759 135.96 270.566C141.263 273.416 145.336 274.737 150.943 277.504C151.845 277.98 152.77 278.454 153.713 278.927C153.738 278.94 153.761 278.952 153.786 278.965C153.785 278.964 153.785 278.964 153.784 278.963C162.248 283.2 172.365 287.279 184.672 291.095C236.519 307.173 267.646 306.527 268.398 304.143C269.149 301.76 195.028 293.819 203.941 286.652C207.686 283.642 284.837 297.719 307.306 286.298C310.549 284.649 285.345 283.637 287.703 280.003C290.866 275.128 315.315 283.551 356.489 278.253C397.663 272.955 401.001 255.101 401.001 255.101L393.17 240.044L105.843 236.64Z" fill="url(#paint1_linear_73_428)"/>
<path d="M149.833 299.902C153.818 301.66 156.714 303.846 156.301 304.784C155.888 305.722 152.322 305.056 148.337 303.298C144.352 301.539 141.456 299.353 141.869 298.415C142.282 297.478 145.848 298.143 149.833 299.902Z" fill="url(#paint2_linear_73_428)"/>
<path d="M180.355 311.794C175.708 310.792 172.116 309.168 172.331 308.166C172.546 307.164 176.651 308.09 181.298 309.092C185.945 310.094 189.373 310.791 189.158 311.793C188.943 312.795 185.001 312.795 180.355 311.794Z" fill="url(#paint3_linear_73_428)"/>
<path d="M170.308 327.143C172.531 328.21 174.039 329.693 173.246 331.346C172.454 333 170.356 332.752 168.132 331.684C165.908 330.617 164.468 328.995 165.193 327.481C165.918 325.967 168.084 326.075 170.308 327.143Z" fill="url(#paint4_linear_73_428)"/>
<path d="M250.586 321.211C250.55 322.838 247.908 323.871 244.692 324.024C231.667 324.643 221.34 320.759 221.365 319.639C221.39 318.52 237.704 318.461 244.822 318.133C248.767 317.951 250.622 319.585 250.586 321.211Z" fill="url(#paint5_linear_73_428)"/>
<path d="M55.4288 254.259C50.0241 249.588 36.7518 240.884 32.3182 221.092C29.3769 207.963 37.9339 199.558 41.0959 201.228C44.258 202.898 39.417 216.125 44.145 228.965C47.923 239.225 57.2488 250.962 59.038 252.381C61.3666 254.226 58.5233 256.933 55.4288 254.259Z" fill="url(#paint6_linear_73_428)"/>
<path d="M32.2464 241.332C31.5654 241.779 22.0399 228.554 26.657 226.316C29.0519 225.154 28.1306 230.697 29.3188 233.911C31.2701 239.189 33.5214 240.493 32.2464 241.332Z" fill="url(#paint7_linear_73_428)"/>
<path d="M456.394 210.729C456.969 245.033 374.852 274.175 272.982 275.821C171.111 277.467 88.0635 250.992 87.4887 216.689C86.914 182.386 169.03 153.243 270.901 151.597C372.772 149.952 455.82 176.426 456.394 210.729Z" fill="url(#paint8_radial_73_428)"/>
<path d="M351.362 205.91C351.613 220.906 316.21 233.638 272.288 234.347C228.365 235.057 192.554 223.475 192.303 208.479C192.052 193.483 227.455 180.752 271.377 180.042C315.3 179.332 351.111 190.914 351.362 205.91Z" fill="url(#paint9_radial_73_428)"/>
<path d="M359.693 200.257C363.081 204.854 362.246 210.439 357.656 215.027C348.252 224.548 328.7 228.641 315.765 231.587C303.062 233.901 290.081 234.603 277.187 234.268C290.011 233.495 302.788 232.014 315.432 229.757C323.858 228.461 332.232 226.467 340.131 223.236C349.429 219.452 365.251 211.56 359.2 200.57C358.654 199.577 358.983 199.293 359.693 200.257Z" fill="url(#paint10_linear_73_428)"/>
<path d="M251.415 236.356C226.623 235.753 194.303 231.835 179.745 218.722C175.453 214.806 172.746 209.058 175.204 203.366C179.694 193.113 195.58 187.659 205.63 184.711C209.241 183.707 212.882 182.839 216.543 182.094C219.551 181.481 219.549 181.868 216.548 182.655C209.715 184.446 202.992 186.619 196.528 189.457C186.163 193.921 168.7 204.66 182.031 216.207C184.435 218.284 187.268 219.96 190.218 221.4C192.85 222.693 196.504 224.637 199.261 225.568C216.004 231.561 233.654 234.389 251.399 235.564C257.313 235.955 258.018 236.517 251.415 236.356Z" fill="url(#paint11_linear_73_428)"/>
<path d="M260.784 166.965C284.11 166.732 308.407 171.928 327.81 183.683C328.937 184.365 328.398 185.262 327.22 184.562C320.86 180.783 313.803 177.946 306.826 175.501C292.071 170.556 276.449 167.793 260.652 167.264C258.533 167.193 258.608 166.987 260.784 166.965Z" fill="url(#paint12_linear_73_428)"/>
<path d="M228.84 174.588C248.456 171.389 272.65 171.898 290.523 179.701C293.417 181.038 296.214 182.625 298.687 184.611C280.509 174.149 250.667 173.92 228.894 175.074C227.495 175.148 227.471 174.811 228.84 174.588Z" fill="white"/>
<path d="M241.406 267.898C220.864 266.116 200.545 261.723 181.585 253.596C166.616 246.888 147.135 234.905 148.388 216.133C148.74 210.196 150.809 204.397 154.084 199.46C166.738 180.608 193.113 172.412 214.365 168.164C214.91 168.06 215.456 167.957 216.002 167.857C220.495 167.031 220.514 167.222 216.04 168.142C215.502 168.253 214.966 168.365 214.429 168.48C194.563 172.983 172.601 180.022 158.904 195.86C156.56 198.725 154.467 201.985 153.066 205.423C150.073 212.766 149.581 221.467 153.558 228.549C159.737 239.604 171.266 246.409 182.447 251.681C201.15 259.967 221.216 264.67 241.557 266.967C251.708 268.114 251.622 268.785 241.406 267.898Z" fill="white"/>
<path d="M364.224 180.996C377.74 188.274 388.959 202.034 378.375 216.89C362.042 238.976 319.884 248.243 293.691 250.72C277.101 252.337 260.324 252.374 243.732 250.911C239.884 250.572 240.026 249.885 243.923 249.932C256.383 250.082 268.816 249.737 281.183 248.706C305.34 246.548 329.743 242.308 351.991 232.39C362.411 227.467 374.138 221.066 379.137 210.303C381.597 204.888 380.286 198.568 377.192 193.656C373.949 188.497 369.188 184.466 364.224 180.996Z" fill="#352ACF"/>
<path d="M416.457 185.037C416.667 184.123 432.793 189.357 436.398 200.332C429.612 189.654 416.107 186.564 416.457 185.037Z" fill="white"/>
<path d="M407.96 205.549C409.058 204.992 412.143 211.294 406.845 217.188C403.936 220.426 395.265 225.553 388.343 226.16C397.303 222.101 398.736 221.506 402.809 217.999C409.797 211.984 407.132 205.968 407.96 205.549Z" fill="white"/>
<path d="M60.1804 159.174C56.3257 158.867 66.2649 146.256 80.2899 141.256C94.3149 136.256 105.259 133.05 112.263 129.981C119.266 126.913 137.317 122.305 140.832 123.919C144.346 125.533 130.984 126.173 125.522 127.675C120.061 129.176 104.456 137.012 99.2119 138.729C81.1039 144.657 68.154 159.808 60.1804 159.174Z" fill="url(#paint13_linear_73_428)"/>
<path d="M153.746 111.273C152.894 110.396 178.565 103.146 189.021 102.488C199.476 101.831 212.798 98.3448 220.542 99.8623C228.287 101.38 230.743 103.162 227.647 104.008C224.551 104.853 215.548 101.504 209.658 103.038C203.767 104.571 190.869 107.922 183.483 107.09C169.883 105.558 154.98 112.544 153.746 111.273Z" fill="url(#paint14_linear_73_428)"/>
<path d="M110.182 160.323C106.721 158.286 127.231 153.983 124.441 157.804C121.651 161.625 113.631 162.353 110.182 160.323Z" fill="#6DA2EF"/>
<path d="M138.492 143.303C136.821 141.414 148.528 140.186 145.918 142.883C143.307 145.58 139.883 144.875 138.492 143.303Z" fill="#6DA2EF"/>
<path d="M91.042 168.174C89.8895 166.454 96.5152 164.871 95.5328 167.14C94.5506 169.409 91.8972 169.451 91.042 168.174Z" fill="#6DA2EF"/>
<path d="M60.4277 223.472C57.7761 222.095 55.3408 226.607 56.7939 231.906C58.247 237.205 60.2569 241.72 62.4008 240.9C64.5447 240.08 61.1987 236.474 61.4169 232.21C61.6352 227.946 63.1274 224.875 60.4277 223.472Z" fill="#6DA2EF"/>
<path d="M13.8095 203.754C12.3696 203.229 15.6367 196.104 20.2347 190.022C24.9926 183.729 31.5232 177.623 33.577 178.742C37.1722 180.702 25.5289 186.631 19.6968 194.254C13.8646 201.878 14.674 204.07 13.8095 203.754Z" fill="url(#paint15_linear_73_428)"/>
<path d="M317.904 126.524C317.057 124.896 343.25 127.493 342.71 131.598C342.17 135.704 318.687 128.03 317.904 126.524Z" fill="url(#paint16_linear_73_428)"/>
<path d="M299.221 137.089C298.638 135.969 319.065 135.978 319.187 139.068C319.252 140.698 299.759 138.125 299.221 137.089Z" fill="url(#paint17_linear_73_428)"/>
<path d="M154.014 155.062C153.925 153.387 148.968 152.288 142.943 152.606C136.918 152.924 132.106 154.539 132.195 156.213C132.285 157.888 137.241 158.987 143.266 158.669C149.291 158.351 154.103 156.736 154.014 155.062Z" fill="#030A24"/>
<path d="M70.301 194.018C139.901 157.818 193.561 152.968 232.898 153.534C250.457 153.786 224.733 157.19 228.07 162.268C228.84 163.44 250.467 165.064 247.398 166.023C218.558 164.705 184.984 168.021 183.382 168.259C169.005 170.392 103.221 178.642 70.301 194.018Z" fill="#6DA2EF"/>
<path d="M288.012 118.411C319.728 103.23 350.749 121.115 363.449 140.339C332.897 91.3032 272.012 83.4191 222.216 109.319C217.816 111.607 214.195 114.706 211.663 118.232C219.332 117.37 234.47 116.222 241.559 117.809C250.598 119.832 251.62 126.695 236.857 126.724C222.597 126.752 209.796 121.813 208.035 126.393C207.911 127.035 207.809 127.68 207.757 128.329C207.756 128.338 207.754 128.345 207.754 128.354C207.234 134.656 198.856 132.702 181.62 132.583C175.808 132.543 165.239 133.925 155.97 138.745C149.277 142.226 165.215 136.863 181.826 137.021C189.716 137.095 207.521 139.577 217.496 146.172C217.552 146.209 217.604 146.237 217.659 146.272C223.364 150.289 231.734 153.639 243.333 155.707C250.389 156.966 330.094 166.657 342.641 190.381C346.268 197.239 354.121 213.054 303.714 231.631C337.942 225.803 345.912 216.797 349.756 211.49C359.146 198.526 353.799 177.106 331.192 168.769C306.808 159.776 284.892 155.95 277.32 142.427C272.7 134.175 273.655 125.284 288.012 118.411Z" fill="#030A24"/>
<path d="M263.178 145.717C264.904 146.504 265.943 147.936 265.497 148.916C265.051 149.896 263.29 150.052 261.564 149.265C259.837 148.478 258.233 146.788 258.679 145.809C259.124 144.829 261.451 144.93 263.178 145.717Z" fill="white"/>
<path d="M239.621 138.144C240.44 138.279 241.029 138.838 240.938 139.394C240.847 139.949 240.11 140.289 239.291 140.154C238.472 140.019 237.614 139.415 237.706 138.86C237.797 138.304 238.803 138.009 239.621 138.144Z" fill="white"/>
<path d="M280.731 111.053C280.508 112.332 278.817 113.106 276.954 112.781C275.09 112.455 269.888 110.479 270.111 109.199C270.333 107.92 275.895 107.822 277.759 108.147C279.623 108.473 280.953 109.773 280.731 111.053Z" fill="white"/>
<path d="M267.141 134.376C266.568 133.274 286.273 134.005 285.695 136.895C285.117 139.785 267.671 135.395 267.141 134.376Z" fill="url(#paint18_linear_73_428)"/>
</g>
<defs>
<linearGradient id="paint0_linear_73_428" x1="187.05" y1="122.526" x2="39.4185" y2="213.443" gradientUnits="userSpaceOnUse">
<stop stop-color="#030A24"/>
<stop offset="0.122" stop-color="#050B2A"/>
<stop offset="0.2813" stop-color="#090E3A"/>
<stop offset="0.4615" stop-color="#111355"/>
<stop offset="0.657" stop-color="#1C1A7B"/>
<stop offset="0.8624" stop-color="#2A23AB"/>
<stop offset="1" stop-color="#352ACF"/>
</linearGradient>
<linearGradient id="paint1_linear_73_428" x1="230.896" y1="275.23" x2="225.579" y2="314.446" gradientUnits="userSpaceOnUse">
<stop stop-color="#FF0068"/>
<stop offset="1" stop-color="#352ACF"/>
</linearGradient>
<linearGradient id="paint2_linear_73_428" x1="149.229" y1="289.43" x2="148.597" y2="339.96" gradientUnits="userSpaceOnUse">
<stop stop-color="#FF0068"/>
<stop offset="1" stop-color="#352ACF"/>
</linearGradient>
<linearGradient id="paint3_linear_73_428" x1="180.984" y1="289.827" x2="180.352" y2="340.357" gradientUnits="userSpaceOnUse">
<stop stop-color="#FF0068"/>
<stop offset="1" stop-color="#352ACF"/>
</linearGradient>
<linearGradient id="paint4_linear_73_428" x1="167.94" y1="285.953" x2="165.303" y2="337.289" gradientUnits="userSpaceOnUse">
<stop stop-color="#FF0068"/>
<stop offset="1" stop-color="#352ACF"/>
</linearGradient>
<linearGradient id="paint5_linear_73_428" x1="236.331" y1="290.519" x2="235.699" y2="341.05" gradientUnits="userSpaceOnUse">
<stop stop-color="#FF0068"/>
<stop offset="1" stop-color="#352ACF"/>
</linearGradient>
<linearGradient id="paint6_linear_73_428" x1="59.7979" y1="273.92" x2="27.2846" y2="185.652" gradientUnits="userSpaceOnUse">
<stop stop-color="#FF0068"/>
<stop offset="1" stop-color="#352ACF"/>
</linearGradient>
<linearGradient id="paint7_linear_73_428" x1="53.3506" y1="282.825" x2="11.8028" y2="198.436" gradientUnits="userSpaceOnUse">
<stop stop-color="#FF0068"/>
<stop offset="1" stop-color="#352ACF"/>
</linearGradient>
<radialGradient id="paint8_radial_73_428" cx="0" cy="0" r="1" gradientUnits="userSpaceOnUse" gradientTransform="translate(273.593 198.51) rotate(-0.100387) scale(196.115 79.0834)">
<stop offset="0.4144" stop-color="#B4CFF7"/>
<stop offset="0.568" stop-color="#6DA2EF"/>
<stop offset="0.8829" stop-color="#FF4A8B"/>
<stop offset="1" stop-color="#FF0068"/>
</radialGradient>
<radialGradient id="paint9_radial_73_428" cx="0" cy="0" r="1" gradientUnits="userSpaceOnUse" gradientTransform="translate(275.591 226.461) rotate(0.104663) scale(110.036 45.8)">
<stop offset="0.4412" stop-color="#030A24"/>
<stop offset="0.6398" stop-color="#352ACF"/>
<stop offset="0.8233" stop-color="#6DA2EF"/>
<stop offset="0.9663" stop-color="#B4CFF7"/>
</radialGradient>
<linearGradient id="paint10_linear_73_428" x1="282.157" y1="243.824" x2="361.144" y2="202.741" gradientUnits="userSpaceOnUse">
<stop stop-color="#030A24"/>
<stop offset="1" stop-color="#352ACF"/>
</linearGradient>
<linearGradient id="paint11_linear_73_428" x1="229.193" y1="247.919" x2="196.551" y2="191.296" gradientUnits="userSpaceOnUse">
<stop stop-color="#030A24"/>
<stop offset="1" stop-color="#352ACF"/>
</linearGradient>
<linearGradient id="paint12_linear_73_428" x1="276.686" y1="162.644" x2="319.864" y2="195.411" gradientUnits="userSpaceOnUse">
<stop stop-color="#352ACF"/>
<stop offset="1" stop-color="#030A24"/>
</linearGradient>
<linearGradient id="paint13_linear_73_428" x1="170.497" y1="95.6471" x2="22.8655" y2="186.564" gradientUnits="userSpaceOnUse">
<stop stop-color="#030A24"/>
<stop offset="0.122" stop-color="#050B2A"/>
<stop offset="0.2813" stop-color="#090E3A"/>
<stop offset="0.4615" stop-color="#111355"/>
<stop offset="0.657" stop-color="#1C1A7B"/>
<stop offset="0.8624" stop-color="#2A23AB"/>
<stop offset="1" stop-color="#352ACF"/>
</linearGradient>
<linearGradient id="paint14_linear_73_428" x1="181.417" y1="113.379" x2="33.7854" y2="204.295" gradientUnits="userSpaceOnUse">
<stop stop-color="#030A24"/>
<stop offset="0.122" stop-color="#050B2A"/>
<stop offset="0.2813" stop-color="#090E3A"/>
<stop offset="0.4615" stop-color="#111355"/>
<stop offset="0.657" stop-color="#1C1A7B"/>
<stop offset="0.8624" stop-color="#2A23AB"/>
<stop offset="1" stop-color="#352ACF"/>
</linearGradient>
<linearGradient id="paint15_linear_73_428" x1="54.9323" y1="275.712" x2="22.419" y2="187.444" gradientUnits="userSpaceOnUse">
<stop stop-color="#FF0068"/>
<stop offset="1" stop-color="#352ACF"/>
</linearGradient>
<linearGradient id="paint16_linear_73_428" x1="291.948" y1="105.695" x2="517.658" y2="240.629" gradientUnits="userSpaceOnUse">
<stop offset="0.1844" stop-color="white"/>
<stop offset="0.2518" stop-color="#F4FFCA"/>
<stop offset="0.322" stop-color="#E9FF9B"/>
<stop offset="0.3966" stop-color="#E0FF72"/>
<stop offset="0.4744" stop-color="#D9FF4E"/>
<stop offset="0.5561" stop-color="#D3FF32"/>
<stop offset="0.6432" stop-color="#CEFF1C"/>
<stop offset="0.7381" stop-color="#CBFF0C"/>
<stop offset="0.8468" stop-color="#C9FF03"/>
<stop offset="1" stop-color="#C8FF00"/>
</linearGradient>
<linearGradient id="paint17_linear_73_428" x1="297.003" y1="130.555" x2="522.714" y2="265.489" gradientUnits="userSpaceOnUse">
<stop offset="0.1844" stop-color="white"/>
<stop offset="0.2518" stop-color="#F4FFCA"/>
<stop offset="0.322" stop-color="#E9FF9B"/>
<stop offset="0.3966" stop-color="#E0FF72"/>
<stop offset="0.4744" stop-color="#D9FF4E"/>
<stop offset="0.5561" stop-color="#D3FF32"/>
<stop offset="0.6432" stop-color="#CEFF1C"/>
<stop offset="0.7381" stop-color="#CBFF0C"/>
<stop offset="0.8468" stop-color="#C9FF03"/>
<stop offset="1" stop-color="#C8FF00"/>
</linearGradient>
<linearGradient id="paint18_linear_73_428" x1="281.528" y1="138.428" x2="507.238" y2="273.362" gradientUnits="userSpaceOnUse">
<stop offset="0.1844" stop-color="white"/>
<stop offset="0.2518" stop-color="#F4FFCA"/>
<stop offset="0.322" stop-color="#E9FF9B"/>
<stop offset="0.3966" stop-color="#E0FF72"/>
<stop offset="0.4744" stop-color="#D9FF4E"/>
<stop offset="0.5561" stop-color="#D3FF32"/>
<stop offset="0.6432" stop-color="#CEFF1C"/>
<stop offset="0.7381" stop-color="#CBFF0C"/>
<stop offset="0.8468" stop-color="#C9FF03"/>
<stop offset="1" stop-color="#C8FF00"/>
</linearGradient>
<clipPath id="clip0_73_428">
<rect width="394" height="256" fill="white" transform="translate(0.163086 182.345) rotate(-27.4798)"/>
</clipPath>
</defs>
</svg>
