<svg width="588" height="560" viewBox="0 0 588 560" fill="none" xmlns="http://www.w3.org/2000/svg">
<g clip-path="url(#clip0_73_428)">
<path d="M138.68 303.101C142.581 308.033 149.933 316.145 150.332 316.353C158.036 320.379 155.962 324.92 152.867 325.017C149.411 325.124 145.291 320.117 143.849 321.7C142.406 323.283 148.208 326.693 150.953 328.571C161.738 335.947 160.133 340.332 156.811 340.768C135.496 343.562 121.024 335.051 108.53 328.131C97.0062 321.749 97.2698 326.196 100.041 329.376C101.295 330.815 104.316 338.135 119.247 344.097C131.844 349.127 139.655 348.615 154.077 350.825C167.493 352.882 194.749 360.309 195.555 357.417C196.361 354.526 190.304 354.433 184.921 352.187C179.657 349.991 176.059 348.538 170.631 345.213C161.79 339.797 165.433 335.22 168.797 337.028C174.1 339.877 178.173 341.198 183.78 343.965C184.682 344.441 185.607 344.915 186.55 345.388C186.575 345.401 186.597 345.413 186.622 345.426C186.622 345.425 186.622 345.425 186.621 345.424C195.085 349.661 205.201 353.74 217.509 357.556C269.356 373.634 300.483 372.988 301.235 370.605C301.986 368.221 227.865 360.28 236.778 353.113C240.523 350.103 317.674 364.18 340.143 352.759C343.386 351.11 318.182 350.099 320.54 346.464C323.703 341.589 348.152 350.012 389.326 344.714C430.5 339.416 433.838 321.563 433.838 321.563L426.007 306.505L138.68 303.101Z" fill="url(#paint0_linear_73_428)"/>
<path d="M182.67 366.363C186.655 368.121 189.551 370.307 189.138 371.245C188.725 372.183 185.159 371.517 181.174 369.759C177.189 368 174.294 365.814 174.706 364.876C175.119 363.939 178.685 364.604 182.67 366.363Z" fill="url(#paint1_linear_73_428)"/>
<path d="M213.192 378.255C208.545 377.253 204.953 375.629 205.168 374.627C205.383 373.625 209.488 374.551 214.135 375.553C218.782 376.555 222.21 377.252 221.995 378.254C221.78 379.256 217.838 379.257 213.192 378.255Z" fill="url(#paint2_linear_73_428)"/>
<path d="M203.145 393.604C205.368 394.671 206.875 396.154 206.083 397.807C205.291 399.461 203.193 399.213 200.969 398.145C198.745 397.078 197.305 395.456 198.03 393.942C198.755 392.428 200.921 392.536 203.145 393.604Z" fill="url(#paint3_linear_73_428)"/>
<path d="M283.423 387.672C283.387 389.299 280.745 390.332 277.529 390.485C264.504 391.104 254.177 387.219 254.202 386.1C254.227 384.981 270.541 384.922 277.659 384.594C281.604 384.412 283.459 386.045 283.423 387.672Z" fill="url(#paint4_linear_73_428)"/>
<path d="M489.231 277.191C489.806 311.494 407.69 340.637 305.819 342.282C203.948 343.928 120.901 317.454 120.326 283.15C119.751 248.847 201.868 219.704 303.738 218.059C405.609 216.413 488.657 242.887 489.231 277.191Z" fill="url(#paint5_radial_73_428)"/>
<path d="M384.199 272.371C384.45 287.367 349.047 300.099 305.124 300.809C261.202 301.518 225.391 289.937 225.14 274.941C224.889 259.945 260.291 247.213 304.214 246.503C348.137 245.793 383.948 257.375 384.199 272.371Z" fill="url(#paint6_radial_73_428)"/>
<path d="M392.53 266.718C395.918 271.315 395.083 276.9 390.493 281.488C381.089 291.009 361.537 295.102 348.602 298.048C335.898 300.362 322.918 301.064 310.024 300.729C322.848 299.956 335.625 298.475 348.269 296.217C356.695 294.922 365.069 292.928 372.968 289.697C382.266 285.913 398.088 278.021 392.037 267.031C391.49 266.037 391.82 265.754 392.53 266.718Z" fill="url(#paint7_linear_73_428)"/>
<path d="M284.252 302.817C259.46 302.214 227.14 298.296 212.582 285.183C208.29 281.267 205.583 275.519 208.041 269.826C212.531 259.574 228.417 254.12 238.467 251.172C242.078 250.168 245.718 249.3 249.38 248.554C252.388 247.942 252.386 248.329 249.384 249.116C242.551 250.907 235.829 253.08 229.365 255.918C219 260.382 201.537 271.121 214.868 282.668C217.272 284.745 220.105 286.421 223.054 287.861C225.687 289.153 229.341 291.098 232.098 292.029C248.841 298.022 266.491 300.849 284.236 302.024C290.15 302.416 290.855 302.978 284.252 302.817Z" fill="url(#paint8_linear_73_428)"/>
<path d="M293.621 233.426C316.947 233.193 341.244 238.389 360.647 250.144C361.773 250.826 361.235 251.723 360.057 251.023C353.696 247.244 346.64 244.407 339.663 241.962C324.908 237.017 309.286 234.253 293.489 233.725C291.37 233.654 291.444 233.448 293.621 233.426Z" fill="url(#paint9_linear_73_428)"/>
<path d="M261.677 241.049C281.293 237.85 305.487 238.359 323.359 246.161C326.254 247.499 329.051 249.086 331.524 251.072C313.346 240.61 283.504 240.381 261.731 241.535C260.332 241.609 260.308 241.272 261.677 241.049Z" fill="white"/>
<path d="M274.243 334.359C253.701 332.577 233.382 328.184 214.422 320.057C199.453 313.349 179.972 301.366 181.225 282.594C181.577 276.657 183.646 270.858 186.921 265.921C199.575 247.069 225.95 238.873 247.202 234.625C247.747 234.521 248.293 234.418 248.839 234.318C253.332 233.492 253.351 233.683 248.877 234.603C248.339 234.714 247.803 234.826 247.266 234.941C227.4 239.444 205.438 246.483 191.741 262.321C189.396 265.186 187.304 268.446 185.903 271.884C182.91 279.227 182.418 287.928 186.395 295.01C192.574 306.065 204.102 312.87 215.284 318.142C233.987 326.428 254.053 331.131 274.394 333.428C284.544 334.575 284.459 335.245 274.243 334.359Z" fill="white"/>
<path d="M397.061 247.457C410.578 254.735 421.797 268.495 411.212 283.351C394.879 305.437 352.721 314.704 326.528 317.181C309.939 318.798 293.161 318.835 276.569 317.372C272.722 317.033 272.863 316.346 276.761 316.393C289.22 316.543 301.653 316.198 314.02 315.167C338.178 313.009 362.58 308.769 384.828 298.851C395.248 293.928 406.975 287.527 411.974 276.764C414.434 271.349 413.123 265.029 410.029 260.117C406.786 254.957 402.025 250.927 397.061 247.457Z" fill="#352ACF"/>
<path d="M449.294 251.498C449.504 250.584 465.63 255.819 469.235 266.793C462.449 256.115 448.944 253.025 449.294 251.498Z" fill="white"/>
<path d="M440.797 272.01C441.895 271.453 444.98 277.755 439.682 283.649C436.773 286.886 428.102 292.014 421.18 292.621C430.14 288.562 431.573 287.967 435.646 284.46C442.634 278.444 439.969 272.429 440.797 272.01Z" fill="white"/>
<path d="M350.741 192.985C349.894 191.357 376.087 193.954 375.548 198.059C375.007 202.165 351.524 194.491 350.741 192.985Z" fill="url(#paint10_linear_73_428)"/>
<path d="M332.057 203.55C331.475 202.43 351.902 202.439 352.024 205.529C352.089 207.159 332.596 204.586 332.057 203.55Z" fill="url(#paint11_linear_73_428)"/>
<path d="M186.851 221.523C186.762 219.848 181.805 218.749 175.78 219.067C169.755 219.385 164.943 221 165.032 222.674C165.121 224.349 170.078 225.448 176.103 225.13C182.128 224.812 186.94 223.197 186.851 221.523Z" fill="#030A24"/>
<path d="M103.138 260.479C172.738 224.279 226.398 219.429 265.735 219.995C283.294 220.247 257.57 223.651 260.907 228.729C261.677 229.901 283.304 231.525 280.235 232.484C251.394 231.166 217.821 234.482 216.219 234.72C201.842 236.853 136.058 245.103 103.138 260.479Z" fill="#6DA2EF"/>
<path d="M320.849 184.872C352.565 169.691 383.586 187.576 396.286 206.8C365.734 157.764 304.849 149.88 255.053 175.78C250.653 178.069 247.032 181.167 244.5 184.693C252.169 183.832 267.307 182.683 274.396 184.27C283.435 186.293 284.457 193.156 269.694 193.185C255.434 193.213 242.633 188.274 240.872 192.855C240.748 193.496 240.646 194.141 240.594 194.79C240.593 194.799 240.591 194.806 240.59 194.815C240.071 201.117 231.692 199.163 214.457 199.044C208.645 199.004 198.076 200.386 188.807 205.206C182.114 208.688 198.052 203.325 214.663 203.482C222.553 203.556 240.358 206.038 250.333 212.633C250.389 212.67 250.441 212.699 250.496 212.734C256.201 216.75 264.571 220.1 276.17 222.169C283.226 223.427 362.931 233.118 375.478 256.842C379.105 263.701 386.958 279.516 336.551 298.092C370.779 292.265 378.749 283.258 382.593 277.951C391.983 264.987 386.635 243.567 364.029 235.23C339.644 226.237 317.728 222.411 310.157 208.888C305.537 200.636 306.492 191.745 320.849 184.872Z" fill="#030A24"/>
<path d="M296.015 212.178C297.741 212.965 298.78 214.398 298.334 215.377C297.888 216.357 296.127 216.513 294.401 215.726C292.674 214.939 291.07 213.249 291.516 212.27C291.961 211.29 294.288 211.391 296.015 212.178Z" fill="white"/>
<path d="M272.458 204.605C273.277 204.74 273.866 205.299 273.775 205.854C273.684 206.409 272.947 206.75 272.128 206.615C271.309 206.48 270.451 205.876 270.542 205.32C270.634 204.765 271.64 204.47 272.458 204.605Z" fill="white"/>
<path d="M313.567 177.514C313.345 178.793 311.654 179.567 309.79 179.241C307.927 178.916 302.725 176.94 302.947 175.66C303.17 174.381 308.732 174.283 310.596 174.608C312.46 174.934 313.79 176.234 313.567 177.514Z" fill="white"/>
<path d="M299.978 200.837C299.404 199.735 319.11 200.466 318.532 203.356C317.954 206.246 300.508 201.856 299.978 200.837Z" fill="url(#paint12_linear_73_428)"/>
</g>
<defs>
<linearGradient id="paint0_linear_73_428" x1="263.732" y1="341.691" x2="258.416" y2="380.907" gradientUnits="userSpaceOnUse">
<stop stop-color="#FF0068"/>
<stop offset="1" stop-color="#352ACF"/>
</linearGradient>
<linearGradient id="paint1_linear_73_428" x1="182.067" y1="355.891" x2="181.435" y2="406.421" gradientUnits="userSpaceOnUse">
<stop stop-color="#FF0068"/>
<stop offset="1" stop-color="#352ACF"/>
</linearGradient>
<linearGradient id="paint2_linear_73_428" x1="213.821" y1="356.288" x2="213.189" y2="406.819" gradientUnits="userSpaceOnUse">
<stop stop-color="#FF0068"/>
<stop offset="1" stop-color="#352ACF"/>
</linearGradient>
<linearGradient id="paint3_linear_73_428" x1="200.776" y1="352.414" x2="198.14" y2="403.75" gradientUnits="userSpaceOnUse">
<stop stop-color="#FF0068"/>
<stop offset="1" stop-color="#352ACF"/>
</linearGradient>
<linearGradient id="paint4_linear_73_428" x1="269.168" y1="356.98" x2="268.536" y2="407.511" gradientUnits="userSpaceOnUse">
<stop stop-color="#FF0068"/>
<stop offset="1" stop-color="#352ACF"/>
</linearGradient>
<radialGradient id="paint5_radial_73_428" cx="0" cy="0" r="1" gradientUnits="userSpaceOnUse" gradientTransform="translate(306.43 264.972) rotate(-0.100387) scale(196.115 79.0834)">
<stop offset="0.4144" stop-color="#B4CFF7"/>
<stop offset="0.568" stop-color="#6DA2EF"/>
<stop offset="0.8829" stop-color="#FF4A8B"/>
<stop offset="1" stop-color="#FF0068"/>
</radialGradient>
<radialGradient id="paint6_radial_73_428" cx="0" cy="0" r="1" gradientUnits="userSpaceOnUse" gradientTransform="translate(308.428 292.922) rotate(0.104663) scale(110.036 45.8)">
<stop offset="0.4412" stop-color="#030A24"/>
<stop offset="0.6398" stop-color="#352ACF"/>
<stop offset="0.8233" stop-color="#6DA2EF"/>
<stop offset="0.9663" stop-color="#B4CFF7"/>
</radialGradient>
<linearGradient id="paint7_linear_73_428" x1="314.994" y1="310.285" x2="393.981" y2="269.202" gradientUnits="userSpaceOnUse">
<stop stop-color="#030A24"/>
<stop offset="1" stop-color="#352ACF"/>
</linearGradient>
<linearGradient id="paint8_linear_73_428" x1="262.03" y1="314.38" x2="229.388" y2="257.757" gradientUnits="userSpaceOnUse">
<stop stop-color="#030A24"/>
<stop offset="1" stop-color="#352ACF"/>
</linearGradient>
<linearGradient id="paint9_linear_73_428" x1="309.523" y1="229.105" x2="352.701" y2="261.872" gradientUnits="userSpaceOnUse">
<stop stop-color="#352ACF"/>
<stop offset="1" stop-color="#030A24"/>
</linearGradient>
<linearGradient id="paint10_linear_73_428" x1="324.785" y1="172.156" x2="550.495" y2="307.09" gradientUnits="userSpaceOnUse">
<stop offset="0.1844" stop-color="white"/>
<stop offset="0.2518" stop-color="#F4FFCA"/>
<stop offset="0.322" stop-color="#E9FF9B"/>
<stop offset="0.3966" stop-color="#E0FF72"/>
<stop offset="0.4744" stop-color="#D9FF4E"/>
<stop offset="0.5561" stop-color="#D3FF32"/>
<stop offset="0.6432" stop-color="#CEFF1C"/>
<stop offset="0.7381" stop-color="#CBFF0C"/>
<stop offset="0.8468" stop-color="#C9FF03"/>
<stop offset="1" stop-color="#C8FF00"/>
</linearGradient>
<linearGradient id="paint11_linear_73_428" x1="329.84" y1="197.016" x2="555.551" y2="331.95" gradientUnits="userSpaceOnUse">
<stop offset="0.1844" stop-color="white"/>
<stop offset="0.2518" stop-color="#F4FFCA"/>
<stop offset="0.322" stop-color="#E9FF9B"/>
<stop offset="0.3966" stop-color="#E0FF72"/>
<stop offset="0.4744" stop-color="#D9FF4E"/>
<stop offset="0.5561" stop-color="#D3FF32"/>
<stop offset="0.6432" stop-color="#CEFF1C"/>
<stop offset="0.7381" stop-color="#CBFF0C"/>
<stop offset="0.8468" stop-color="#C9FF03"/>
<stop offset="1" stop-color="#C8FF00"/>
</linearGradient>
<linearGradient id="paint12_linear_73_428" x1="314.365" y1="204.889" x2="540.075" y2="339.823" gradientUnits="userSpaceOnUse">
<stop offset="0.1844" stop-color="white"/>
<stop offset="0.2518" stop-color="#F4FFCA"/>
<stop offset="0.322" stop-color="#E9FF9B"/>
<stop offset="0.3966" stop-color="#E0FF72"/>
<stop offset="0.4744" stop-color="#D9FF4E"/>
<stop offset="0.5561" stop-color="#D3FF32"/>
<stop offset="0.6432" stop-color="#CEFF1C"/>
<stop offset="0.7381" stop-color="#CBFF0C"/>
<stop offset="0.8468" stop-color="#C9FF03"/>
<stop offset="1" stop-color="#C8FF00"/>
</linearGradient>
<clipPath id="clip0_73_428">
<rect width="457.594" height="392.03" fill="white" transform="translate(0.569092 211.676) rotate(-27.4798)"/>
</clipPath>
</defs>
</svg>
