<svg height="192.67" viewBox="0 0 196.311 192.67" width="196.311" xmlns="http://www.w3.org/2000/svg" xmlns:xlink="http://www.w3.org/1999/xlink"><linearGradient id="a" gradientUnits="userSpaceOnUse" x1="212.292" x2="134.181" y1="21.355" y2="58.688"><stop offset=".01" stop-color="#6da2ef"/><stop offset="1" stop-color="#fff"/></linearGradient><linearGradient id="b" x1="213.396" x2="135.285" xlink:href="#a" y1="23.665" y2="60.998"/><linearGradient id="c" x1="211.019" x2="132.908" xlink:href="#a" y1="18.691" y2="56.025"/><linearGradient id="d" x1="-26.02" x2="37.234" xlink:href="#a" y1="204.477" y2="156.752"/><linearGradient id="e" x1="53.881" x2="78.713" xlink:href="#a" y1="152.449" y2="152.449"/><radialGradient id="f" cx="116.983" cy="13.255" gradientUnits="userSpaceOnUse" r="50.003"><stop offset="0" stop-color="#2c25a3"/><stop offset="1" stop-color="#030a24"/></radialGradient><linearGradient id="g" x1="135.34" x2="56.878" xlink:href="#a" y1="139.549" y2="53.441"/><path d="m108.076 46.514c9-.772 25.873 1.166 46.359-6.845 2.031 5.434 4.451 11.262 6.482 16.7-8.513 4.544-33.567 14.9-56.994 10.75q2.077-10.303 4.153-20.605z" fill="#6da2ef"/><path d="m159.879 37.544c4.109-2.092 4.732-2.818 9.107-5.364 3.761-2.189 6.647-4.931 10.014-7.115 3.881-1.426-.272 7.986-4.311 9.412l13.305 10.692c-3.672 1.762-7.58 3.517-11.721 5.227-4.385 1.811-5.4 2.086-9.458 3.487-8.026 3.566-12.398-14.04-6.936-16.339z" fill="url(#a)"/><path d="m172.53 33.907 8.022 14.671s17.739-7.7 15.451-10.094c-1.233-1.291-6.708 1.9-10.385 3.438 9.211-4.9 11.129-7.063 10.443-8.015-1.056-1.468-4.049.352-12.739 4.688 9.805-5.627 12.61-7.557 11.544-9.12-.88-1.291-3.616.441-14.422 5.4" fill="url(#b)"/><path d="m179.556 36.909c9.64-5.35 13.124-7.572 11.39-9.441-1.062-1.146-8.557 2.8-18.416 6.439" fill="url(#c)"/><path d="m166.815 53.883c-4.165 2.522-9.719-15.518-6.936-16.339l-5.171 1.96c-2.783.847 1.773 18.568 6.523 16.728z" fill="#ff4a8b"/><path d="m171.683 44.088a.5.5 0 0 1 -.294-.9c2.582-1.878 2.8-8.653 2.8-8.721a.5.5 0 0 1 .175-.367 43.689 43.689 0 0 0 3.892-3.6.5.5 0 0 1 .84.543 39.569 39.569 0 0 1 -3.916 3.677c-.06 1.266-.484 7.3-3.2 9.277a.5.5 0 0 1 -.297.091z" fill="#030a24"/><path d="m180.445 35.123a.25.25 0 0 1 -.1-.477c2.244-1.03 4.14-1.92 5.743-2.673 6.444-3.024 8.175-3.837 8.99-2.639a.25.25 0 1 1 -.414.281c-.577-.847-2.7.151-8.363 2.811-1.6.753-3.5 1.645-5.747 2.675a.256.256 0 0 1 -.109.022z" fill="#030a24"/><path d="m183.321 38.845a.25.25 0 0 1 -.111-.474q1.749-.873 3.2-1.607c6.6-3.328 8.817-4.442 9.855-3a.25.25 0 1 1 -.406.293c-.789-1.1-3.258.146-9.224 3.157-.971.489-2.035 1.027-3.2 1.609a.256.256 0 0 1 -.114.022z" fill="#030a24"/><path d="m185.618 42.172a.25.25 0 0 1 -.1-.48c.9-.376 1.894-.845 2.945-1.341 3.427-1.615 6.665-3.142 7.717-2.04a.25.25 0 0 1 -.362.345c-.8-.845-4.318.817-7.141 2.147-1.057.5-2.055.97-2.966 1.35a.254.254 0 0 1 -.093.019z" fill="#030a24"/><path d="m110.076 67.882c-.079-2.117 2.206-16.556.976-19.792a25.826 25.826 0 0 0 -2.239-4.5 6.377 6.377 0 0 1 2.808-.528h.03c9.307.478.531 23.425-1.575 24.82z" fill="#fff"/><path d="m108.813 43.588c-4.89-1.3-31.2-1.793-34.279.745-2.452 6.181-4.861 12.75-7.161 19.7-2.759 8.329-5.073 16.329-7.017 23.917-7.455 7.731-16.22 23.887-26.285 48.289-2.647 6.416-32.716 29.906-33.931 33.777-1.34 6.307 7.338 19.71 9.66 21.914 1.905 1.479 5.146.511 7.571-.9a5.8 5.8 0 0 0 2.727-6.087 37.47 37.47 0 0 0 -1.666-6.557c14.45-9.265 27.8-21.84 36.264-34.54 3.46-5.19 17.891-25.623 19.929-29.452.505 2.681 5.92 14.092 7.046 16.013-2.624.923-23.105 10.82-26.975 13.439-3.142 4.873 3.522 26.953 7.413 26.549a13.785 13.785 0 0 0 3.748-1.271 4.9 4.9 0 0 0 2.7-4.484 40 40 0 0 0 -.7-6.7c5.69-2.318 24.111-12.124 35.131-18.633a10.12 10.12 0 0 0 4.583-11.5c-3.678-12.854-10.243-29.906-8.4-36.14 2.361-8.639 11.746-18.914 13.545-35.314.41-5.372-.985-13.563-3.903-12.765z" fill="#6da2ef"/><path d="m23.668 147.639c-9.721 9.025-22.737 19.861-23.528 22.377-1.34 6.307 7.338 19.71 9.66 21.914 1.905 1.479 5.146.511 7.571-.9a5.8 5.8 0 0 0 2.727-6.087 37.47 37.47 0 0 0 -1.666-6.557 138.176 138.176 0 0 0 17.454-13.3c-4.2 2.629-14.755-11.848-12.218-17.447z" fill="url(#d)"/><path d="m72.771 134.492c-6.945 3.342-15.681 7.741-18.073 9.359-3.142 4.873 3.522 26.953 7.413 26.549a13.785 13.785 0 0 0 3.748-1.271 4.9 4.9 0 0 0 2.7-4.484 40 40 0 0 0 -.7-6.7c2.155-.878 6.139-2.832 10.853-5.272-5.083 1.35-10.187-14.428-5.941-18.181z" fill="url(#e)"/><g fill="#c8ff00"><path d="m68.152 136.743c-1.724 5.348 1.58 15.822 5.715 18.4 1.481-.736 3.113-1.566 4.846-2.463-5.084 1.345-10.188-14.433-5.942-18.186-1.484.713-3.051 1.476-4.619 2.249z"/><path d="m14.9 192.422h-.03c-3.577-.417-7.84-8.656-9.061-11.172-2.731-5.625-4.909-12.262-3.809-14.067a.248.248 0 0 1 .344-.082.251.251 0 0 1 .082.344c-.866 1.41.815 7.377 3.83 13.585 3.137 6.461 6.459 10.636 8.67 10.894a.25.25 0 0 1 -.029.5z"/><path d="m13.588 167.152a.242.242 0 0 1 -.111-.027l-7.257-3.593a.25.25 0 1 1 .223-.447l7.111 3.521 11.62-9.606a.25.25 0 1 1 .318.385l-11.745 9.714a.249.249 0 0 1 -.159.053z"/><path d="m17.228 178.887c-2.348 0-5.19-2.192-7.319-4.224a35.2 35.2 0 0 1 -6.66-8.522.25.25 0 1 1 .451-.217c2.1 4.356 10.644 14.033 14.632 12.238a.25.25 0 1 1 .2.457 3.176 3.176 0 0 1 -1.304.268z"/><path d="m23.668 147.639c-1.237 1.147-2.526 2.324-3.837 3.51-.636 5.764 6.35 16.087 11.269 18.022 1.628-1.331 3.232-2.685 4.788-4.079-4.2 2.623-14.757-11.854-12.22-17.453z"/><path d="m63.666 170.515a.5.5 0 0 1 -.248-.066c-2.206-1.259-4.87-8.24-6.412-14.192-.831-3.208-2.579-10.972-.871-13.788a.5.5 0 1 1 .855.52c-1.032 1.7-.655 6.689.984 13.017 1.736 6.7 4.346 12.664 5.94 13.574a.5.5 0 0 1 -.248.935z"/><path d="m67.366 158.511a3.545 3.545 0 0 1 -2.035-.745c-3.7-2.624-7.44-12.088-7.785-15.811a.5.5 0 0 1 .452-.544.507.507 0 0 1 .544.453c.322 3.476 3.936 12.654 7.367 15.086a2.25 2.25 0 0 0 1.83.515.5.5 0 0 1 .243.971 2.564 2.564 0 0 1 -.616.075z"/></g><path d="m80.1 131.57a.5.5 0 0 1 -.19-.963l7.468-3.05a.5.5 0 1 1 .379.926l-7.468 3.049a.487.487 0 0 1 -.189.038z" fill="#fff"/><path d="m70.978 120.629a.5.5 0 0 1 -.425-.764l6.864-11.045a.5.5 0 1 1 .85.527l-6.867 11.046a.5.5 0 0 1 -.422.236z" fill="#fff"/><path d="m60.356 87.95c.9 3.422 34.145 9.224 38.5 6.451l1.2-5.314c-5.469 2.929-35.622-3.978-37.735-6.969z" fill="#fff"/><path d="m90.581 54.343h15.08v1h-15.08z" fill="#fff"/><path d="m90.581 59.841h15.08v1h-15.08z" fill="#fff"/><path d="m74.545 42.618c0 .538 7.905.975 17.658.975s17.657-.437 17.657-.975l.041.027a25 25 0 1 0 -35.418-.02z" fill="url(#f)"/><path d="m110.544 8.021a24.993 24.993 0 1 0 -36.062 34.6l.061-.007c0 .029.033.059.081.088a.419.419 0 0 0 .043.023 1.346 1.346 0 0 0 .216.078l.026.008c.1.028.232.054.374.081l.143.025c.124.021.261.041.41.061l.129.019c.183.023.388.046.6.069l.287.028c.151.015.31.029.474.043l.386.033q.33.026.689.05l.476.031.455.028q.461.027.956.052l.444.022.661.03.462.019q.668.027 1.381.05l.283.009a22.42 22.42 0 0 1 -4.971-8.388 22 22 0 0 1 -.806-10.52c2.926-16.228 21.007-19.506 32.802-16.532z" fill="#6da2ef"/><path d="m77.748 26.058a1.515 1.515 0 0 1 -.267-.024 1.5 1.5 0 0 1 -1.211-1.742 20.976 20.976 0 0 1 9.43-14.283c8.063-5.2 18.623-5.105 25.214-3.442a1.5 1.5 0 1 1 -.732 2.908c-6.012-1.515-15.6-1.626-22.856 3.056a17.815 17.815 0 0 0 -8.1 12.292 1.5 1.5 0 0 1 -1.478 1.235z" fill="#c8ff00"/><ellipse cx="73.397" cy="25.114" fill="#c8ff00" rx="11.574" ry="7.034" transform="matrix(.09329162 -.99563883 .99563883 .09329162 41.544 95.848)"/><ellipse cx="71.019" cy="24.892" fill="#c8ff00" rx="8.374" ry="5.662" transform="matrix(.093 -.996 .996 .093 39.61 93.278)"/><path d="m70.607 33.746c-.139 0-.278-.007-.416-.019a.5.5 0 0 1 -.452-.545.511.511 0 0 1 .545-.451 4.462 4.462 0 0 0 3.783-1.888 10.151 10.151 0 0 0 2.091-5.47c.406-4.322-1.57-8.055-4.405-8.321a.5.5 0 1 1 .094-1c3.383.317 5.764 4.539 5.307 9.411a11.15 11.15 0 0 1 -2.315 6.011 5.552 5.552 0 0 1 -4.232 2.272z" fill="#030a24"/><path d="m110.747 45.124v-3.41c0 .643-8.3 1.164-18.545 1.164s-18.545-.521-18.545-1.164v3.41c0 .643 8.3 1.164 18.545 1.164s18.545-.521 18.545-1.164z" fill="#c8ff00"/><path d="m72.6 45.558-2.009-1.431-1.732.8c-4.659 1.335-15.959 13.063-24.608 22.526a9.951 9.951 0 0 0 5.432 16.474 166.29 166.29 0 0 0 21.738 2.662l7.615-13.647a133.447 133.447 0 0 1 -14-3.261c1.6-1.849 6.578-6.941 7.821-9.5q.593-1.907 1.186-3.813l.358-7.788z" fill="#6da2ef"/><path d="m69.553 64.656c4.855-6.487 4.421-20.529-.7-19.727-.126-.749.737-1.39 1.917-1.732a4.428 4.428 0 0 1 5.568 4.224c.098 5.861-2.503 14.779-6.785 17.235z" fill="#fff"/><path d="m49.9 61.376a3.36 3.36 0 0 0 .514.572c2.384 2.064 7.159.452 10.666-3.6 3.12-3.6 4.178-7.921 2.7-10.284a154.48 154.48 0 0 0 -13.88 13.312z" fill="#fff"/><path d="m71.421 86.589h12.261s1.457 6.175 3.34 6.854a24.249 24.249 0 0 0 3.082.885 3.39 3.39 0 0 0 3.718-2.039 18.26 18.26 0 0 0 1.161-14.034c-1.673-2.75-5.543-4.376-8.748-4.665l-7.2-.648z" fill="url(#g)"/><path d="m72.887 71.563c4.339.456-1.736 15.79-4.167 14.869l6.1.329c2.943.261 7.563-12.89 3.949-13.97z" fill="#ff4a8b"/><path d="m73.632 72.583a.544.544 0 0 1 -.119-.014l-16.275-4.005a.5.5 0 0 1 .239-.971l16.274 4a.5.5 0 0 1 -.119.985z" fill="#fff"/></svg>