<svg height="507.711" viewBox="0 0 499.384 507.711" width="499.384" xmlns="http://www.w3.org/2000/svg" xmlns:xlink="http://www.w3.org/1999/xlink"><linearGradient id="a" gradientUnits="userSpaceOnUse" x1="312.303" x2="194.007" y1="106.925" y2="440.304"><stop offset="0" stop-color="#16175b"/><stop offset="1" stop-color="#6da2ef"/></linearGradient><clipPath id="b"><path d="m439.582 225.119c0 19.781 19.831 35.945 14.25 53.89a191.108 191.108 0 0 1 -182.432 134.218c-105.5 0-191.026-85.527-191.026-191.027s85.526-191.019 191.026-191.019c43.11 0 60.639 34.637 92.605 58.726 46.259 34.861 75.577 72.823 75.577 135.212z"/></clipPath><linearGradient id="c" gradientTransform="matrix(.91609701 .4009567 -.4009567 .91609701 -315.551 1840.244)" gradientUnits="userSpaceOnUse" x1="-136.167" x2="-125.479" y1="-1633.276" y2="-1585.181"><stop offset="0" stop-color="#c8ff00"/><stop offset="1" stop-color="#6da2ef"/></linearGradient><path d="m485.042 457c-30.809-23.212-78.017-52.152-99.636-55.9l-256.287-51.448a286.446 286.446 0 0 0 -129.119 33.74v124.319h485.042z" fill="#fff"/><circle cx="271.397" cy="222.204" fill="url(#a)" r="191.023"/><path d="m280.156 31.181c-1.375 0-2.742.03-4.11.061a190.527 190.527 0 0 1 57.76 10.379 247.479 247.479 0 0 1 93.213 96.009c29.709 55.1 30.7 107.385 28.716 134.793-22.052 81.134-91.194 191.377-212.978 146.538-10.927-4.024 91.095 36.9 91.095 36.9 80.832-28.282 146.085-105.186 146.085-203.88 0-121.942-89.445-220.8-199.781-220.8z" fill="#fff"/><path d="m96 293.442c-.625-.337-12.754 44.076-9.115 60.223 47.442 127.129 246.915 136.861 322.122 57.483 26.39-19.1 36.2-61.412 37-75.409 1.115-19.634-22.409 5.5-24.089 4.094-95.296-3.633-230.629-42.757-325.918-46.391z" fill="#ff4a8b"/><g clip-path="url(#b)"><path d="m331.547 175.4a258.006 258.006 0 0 0 -19.605 256.7l110.579-67.286 31.422-54.544v-31.425l-6.681-76.534-59.817-86.193a257.873 257.873 0 0 0 -55.898 59.282z" fill="#c8ff00"/><path d="m403.916 268.117c-4.858-5.2-11.853-12.691-15.913-24.245-3.231-9.2-1.527-12.209-5.132-25.253 0 0-3.853-14.452-11.693-22.562-13.267-13.725-23.91-24.242-31.806-31.532q-4.027 5.307-7.825 10.874a259.329 259.329 0 0 0 -24.365 44.563q-.842 3.2-1.608 6.4c5.022 5.3 10.109 12.075 12.155 21.58 2.724 12.652 7.2 24.864 15.7 39.72 7.059 12.343 19.081 21.465 43.126 39.709 16.786 12.737 23.489 26.06 26 23.594 2.616-2.565-3-21.846-15.149-34.766-19.744-21-27.567-17.1-37.068-33.963-4.484-7.956-8.431-20.677-11.628-34.964-1.88-8.4-17.443-23.039-6.319-27.344 4.393-1.7 19.235 10.1 32.766 31.643 9.374 14.92 9.264 18.666 17.634 29.57 14.132 18.41 35.816 14.9 55.562 30.476 4.631 3.654-9.794-21.451-10.582-22.422-8.602-10.62-13.334-9.813-23.855-21.078z" fill="#fff"/><g fill="#ff4a8b"><path d="m460.768 358.358a649.318 649.318 0 0 1 -193.012-106.444 654.339 654.339 0 0 1 -143.566-159.914l.843-.537a653.32 653.32 0 0 0 143.348 159.669 648.328 648.328 0 0 0 192.719 106.281z"/><path d="m418.605 358.342a671.907 671.907 0 0 1 -161.918-101.349 677.858 677.858 0 0 1 -125.268-139.439l.83-.558a676.817 676.817 0 0 0 125.083 139.232 670.928 670.928 0 0 0 161.677 101.2z"/><path d="m458.687 334.13a612.8 612.8 0 0 1 -186.6-105.755 618.141 618.141 0 0 1 -136.354-158.734l1.714-1.029a616.163 616.163 0 0 0 135.919 158.222 610.877 610.877 0 0 0 185.989 105.412z"/></g><path d="m34.668 237.764 56.952-40.452 25.541-18.956 26.308-14.641 40.662-19.303 14.202 6.216 6.904 39.112 20.519 16.646 8.193 32.899 39.312 21.827 57.566 54.838 16.53 40.542z" fill="#030a24"/><path d="m415.406 393.157a551.379 551.379 0 0 0 -415.406-137.427v161.559l361.07 90.422z" fill="url(#c)"/><path d="m-.263 325.956c22.72-3.3 49.165 3.466 73.9-3.1 36.753-9.757 58.869-13.66 80.661-16.587 1.589-9.642-5.87-2.564-4.281-12.2l-19.843-6.718-2.074-32.733-20.334-12.2-7.631-14.682-35.326-33.44-16.461 17.09-21 21.864z" fill="#352acf"/><path d="m369.979 357.778a.5.5 0 0 1 -.1-.01c-8.184-1.676-17.387-2.607-27.128-3.595-12.283-1.244-24.983-2.53-36.929-5.442-2.179-.53-6.094-5.71-10.241-11.193-3.385-4.48-6.886-9.111-8.423-9.659-25.128-8.959-49.647-12.426-69.347-15.213-11.668-1.65-21.745-3.076-29.175-5.268-6.98-2.06-21.468-1.958-40.8.285-16.2 1.88-33.91 5.088-45.119 8.174a.5.5 0 0 1 -.266-.965c20.45-5.629 70.036-13.3 86.464-8.453 7.36 2.172 17.4 3.592 29.031 5.237 19.746 2.792 44.32 6.268 69.544 15.262 1.818.647 5.093 4.979 8.885 10 3.678 4.865 7.847 10.379 9.679 10.826 11.879 2.895 24.545 4.178 36.794 5.419 9.767.989 18.993 1.924 27.228 3.609a.5.5 0 0 1 -.1.99z" fill="#352acf"/><path d="m342.208 415.327c-32.86 0-58.6-7.416-58.6-16.883s25.74-16.883 58.6-16.883 58.6 7.416 58.6 16.883-25.739 16.883-58.6 16.883zm0-32.766c-31.222 0-57.6 7.273-57.6 15.883s26.378 15.883 57.6 15.883 57.6-7.274 57.6-15.883-26.377-15.883-57.6-15.883z" fill="#352acf"/></g><path d="m324.112 54.626c-28.073 8.314-53.831 27.326-73.289 51.446a232.7 232.7 0 0 1 24.8 6.221 222.19 222.19 0 0 0 -23.589 5.759 233.721 233.721 0 0 1 52.425 64.53 213.921 213.921 0 0 0 -60.368-54.3q-2.367 15.738-3.271 33.167c-3.083-10.753-6.185-20.936-9.232-30.6-25.968 36.141-37.714 79.5-35.665 129.417-5.131-52.808 2.544-97.637 24.993-136a337.763 337.763 0 0 0 -54.326 14.58 307.718 307.718 0 0 1 51.777-26.5 213.965 213.965 0 0 0 -74.252-29.715 233.146 233.146 0 0 1 82.292 19.33 238.7 238.7 0 0 1 3.644-25.532q5.063 10.826 10.194 22.9c23.155-22.156 52.722-39.273 83.867-44.703z" fill="#fff"/><path d="m105.941 109.056-.567-.824 42.56-29.267c31.078-15.347 44.966-28.427 42.52-40.026a8.823 8.823 0 0 0 -4.54-6.342c-9.558-5.176-31.4 3.282-44.46 8.339-2.653 1.028-4.948 1.917-6.849 2.589l-56.754 39.311-.571-.822 56.929-39.414c1.9-.669 4.209-1.564 6.884-2.6 14.072-5.451 35.335-13.683 45.3-8.286a9.9 9.9 0 0 1 5.042 7.014c2.589 12.278-11.073 25.336-42.994 41.094z" fill="#fff"/><path d="m135.413 123.248c39.446-29.786 73.6-46.438 70.942-57.228a9.432 9.432 0 0 0 -4.107-5.352 13.125 13.125 0 0 0 -10.939-1.782l-15.309 4.144c11.349-8.515 16.564-16.521 14.945-24.195-1.751-8.3-10.222-9.415-20.353-7.646a13.359 13.359 0 0 0 -.268-3.5c-3.863-18.312-40.395-1.689-55.385 3.811 11.787-13.4 14.238-20.763 13.594-23.825-5.621-26.687-82.239 23.506-99.841 39.725-10.867 10.014-20.6 18.882-28.692 27.037v247.1l172.317-161.872a6.8 6.8 0 0 0 -.244-10.192l-.056-.045c-18.1-14.669-52.753.882-68.209 9.1 11.132-13.479 26.131-31.146 31.605-35.28z" fill="#fff"/><g fill="#6da2ef"><path d="m33.393 198.292a1 1 0 0 1 -.656-1.754c13.746-11.948 23.2-19.769 38.6-27.63 12-6.126 25.82-11.276 36.966-13.775a1 1 0 1 1 .437 1.951c-10.991 2.465-24.633 7.55-36.493 13.6-15.506 7.916-24.618 15.553-38.2 27.358a1 1 0 0 1 -.654.25z"/><path d="m101.461 117.533a1 1 0 0 1 -.66-1.751c30.011-26.375 63.658-47.7 74.4-53.385a1 1 0 0 1 .936 1.768c-9.1 4.812-43.547 26.34-74.016 53.119a.994.994 0 0 1 -.66.249z"/><path d="m83.39 103.52a1 1 0 0 1 -.654-1.757c23.007-19.9 43.25-33.722 58.03-43.817 17.981-12.281 28.835-19.694 28.825-26.764a1 1 0 0 1 1-1 1 1 0 0 1 1 1c.012 8.127-11.171 15.764-29.7 28.417-14.74 10.068-34.929 23.857-57.85 43.68a1 1 0 0 1 -.651.241z"/><path d="m51.174 94.7a1 1 0 0 1 -.826-1.563c13.826-20.33 28.37-31.837 42.434-42.971 7.829-6.195 15.923-12.6 23.668-20.4a1 1 0 1 1 1.42 1.408c-7.83 7.885-15.97 14.326-23.847 20.561-13.946 11.037-28.368 22.45-42.023 42.524a1 1 0 0 1 -.826.441z"/></g><path d="m427.019 137.63a247.479 247.479 0 0 0 -93.213-96.009 191.788 191.788 0 0 0 -122.575-.76c28.585-.976 51.238 4.3 68.052 10.491 121.784 44.841 144.543 213.965 145.963 225.741-.694 35.26 8.437 76.464 30.489-4.67 1.983-27.408.993-79.69-28.716-134.793z" fill="#ff4a8b"/><path d="m413.255 262.714c-12.375 36.884-7.046 72.334 12.161 78.383 32.29 10.169 55.367-18.3 67.742-55.187.62-1.847-.53 1.834 0 0 10.071-34.8-4.792-72.3-22.928-78.383-19.091-6.405-44.6 18.303-56.975 55.187z" fill="#c8ff00"/><path d="m431.712 343.107a20.735 20.735 0 0 1 -6.614-1.062c-19.583-6.571-25.321-42.3-12.791-79.649a123.534 123.534 0 0 1 17.435-34.135 1 1 0 0 1 1.6 1.2 121.5 121.5 0 0 0 -17.142 33.572c-12.179 36.3-7.007 70.9 11.532 77.116a19.153 19.153 0 0 0 7.769.88.98.98 0 0 1 1.083.909 1 1 0 0 1 -.909 1.083q-.988.087-1.963.086z" fill="#030a24"/><ellipse cx="463.049" cy="280.385" fill="#030a24" rx="62.155" ry="31.307" transform="matrix(.31808246 -.94806305 .94806305 .31808246 49.938 630.199)"/><ellipse cx="467.472" cy="280.45" fill="#c8ff00" rx="59.523" ry="27.094" transform="matrix(.31808246 -.94806305 .94806305 .31808246 52.892 634.436)"/><path d="m434.808 507.711c13.5-18.888 38.615-50.186 46.459-53.523 15.538-4.114-28.706-39.453-49.46-32.42-12.622 4.087-54.243 34.1-70.737 85.943z" fill="#ff4a8b"/></svg>