<svg xmlns="http://www.w3.org/2000/svg" viewBox="0 0 1200 1000" width="1200" height="1000"><g transform="translate(293.0 113.0) rotate(0.0 304.0 363.0) scale(0.9789667070812462 0.9758930227681488)"><svg width="621.063" height="743.934" viewBox="0 0 621.063 743.934"><linearGradient id="a" gradientTransform="matrix(1 0 0 -1 0 519.7702)" gradientUnits="userSpaceOnUse" x1="318.266" x2="303.142" y1="912.412" y2="-1117.05"><stop offset="0" stop-color="#030a24"/><stop offset=".087" stop-color="#040b28"/><stop offset=".173" stop-color="#080d34"/><stop offset=".258" stop-color="#0d1148"/><stop offset=".343" stop-color="#161663"/><stop offset=".428" stop-color="#201d87"/><stop offset=".511" stop-color="#2d25b3"/><stop offset=".559" stop-color="#352acf"/></linearGradient><path d="M621.063.943v742.991L0 739.121 4.073 0z" fill="url(#a)"/><g fill="#fff"><path d="M218.124 711.413a2.834 2.834 0 1 0 0 5.668 2.834 2.834 0 0 0 0-5.668zm390.287-537.74a1.15 1.15 0 1 0 0 2.3 1.15 1.15 0 0 0 0-2.3z"/><circle cx="51.656" cy="275.436" r="1.405"/><path d="M125.851 112.392a2.683 2.683 0 1 0 0 5.365 2.683 2.683 0 0 0 0-5.365zm186.314 381.346a.946.946 0 1 0 0 1.892.946.946 0 0 0 0-1.892zm41.317-190.352a3.073 3.073 0 1 0 0 6.146 3.073 3.073 0 0 0 0-6.146zM517.15 117.359a2.16 2.16 0 1 0 0 4.32 2.16 2.16 0 0 0 0-4.32zM292.203 310.127a1.15 1.15 0 1 0 0 2.3 1.15 1.15 0 0 0 0-2.3zm-154.27 333.018a1.15 1.15 0 1 0 0 2.3 1.15 1.15 0 0 0 0-2.3zm144.304-167.336-1.191-11.957-1.204 11.957-10.707 1.474 10.614 1.171 1.297 11.595 1.24-11.595 9.917-1.171zm-206.07 52.013a1.15 1.15 0 1 0 0 2.3 1.15 1.15 0 0 0 0-2.3z"/><circle cx="450.392" cy="40.716" r="1.213"/><circle cx="153.817" cy="485.269" r="2.417"/><path d="M198.774 75.861a2.16 2.16 0 1 0 0 4.32 2.16 2.16 0 0 0 0-4.32z"/><circle cx="536.979" cy="425.627" r="1"/><circle cx="429.979" cy="604.627" r="2"/><circle cx="556.979" cy="689.627" r="3"/></g></svg></g><g transform="translate(184.0 61.0) rotate(0.0 129.5 115.0) scale(1.0025897008102007 1.0005785954486726)"><svg width="258.331" height="229.867" viewBox="0 0 258.331 229.867"><linearGradient id="b" gradientUnits="userSpaceOnUse" x1="28.464" x2="258.331" y1="114.933" y2="114.933"><stop offset="0" stop-color="#030a24"/><stop offset="1" stop-color="#2c25a3"/></linearGradient><linearGradient id="c" gradientTransform="matrix(.644 .765 .765 -.644 -1147.4785 2618.0405)" gradientUnits="userSpaceOnUse" x1="-1132.234" x2="-814.083" y1="2578.075" y2="2620.889"><stop offset="0" stop-color="#fff"/><stop offset="1" stop-color="#6da2ef"/></linearGradient><path d="M28.464 0h229.867v229.867H28.464z" fill="url(#b)"/><circle cx="136.992" cy="114.504" fill="#6da2ef" r="82.002"/><path d="M199.523 146.582c-10.976-8.763-28.951-9.768-29.13-16.72-.174-6.823 15.554-7.737 14.942-12.577-.641-5.074-19.144-11.319-39.867-9.646-14.256 1.151-24.838 4.801-27.249.679-1.464-2.504.887-6.519 3.157-9.858 14.57-21.423 31.798-41.152 31.45-47.653-.511-9.532-23.745-7.915-52.596 15.064-2.142 1.325-33.957 30.638-42.972 67.839a81.424 81.424 0 0 0 3.712 11.577c6.533-3.99 13.954-8.776 16.425-6.533 2.267 2.057-.886 8.886-1.171 9.496-2.23 4.735-5.829 7.588-8.868 9.565a82.404 82.404 0 0 0 5.065 7.225 39.124 39.124 0 0 0 12.884-2.503c12.027-4.58 13.284-8.468 20.123-8.756 12.051-.508 13.34 19.03 30.318 23.575 11.799 3.158 19.296-.763 35.122-.932 7.278-.078 10.786 3.501 12.667 5.598.146-.123 6.117-4.659 6.263-4.782a81.682 81.682 0 0 0 21.377-27.759c-3.841.323-8.002.015-11.652-2.899z" fill="url(#c)"/><g fill="#c8ff00"><path d="M214.872 88.774c17.035-9.802 15.77-20.791 9.752-27.953C207.7 40.682 148.367 46.1 101.19 78.232c-37.621 25.628-68.247 57.817-54.726 79.752 4.648 7.54 14.069 9.005 23.273 3.431-.931-1.272-2.024-3.036-2.024-3.036s-10.156 4.103-13.88-1.709c-14.186-20.396 60.818-84.893 120.13-86.86 35.289-2.663 38.878 13.489 38.878 13.489.471 1.84 1.088 2.719 2.031 5.475z"/><path d="M213.988 142.754c6.914 2.883 27.763 7.281 32.869-4.421 3.745-8.582.833-31.445-53.691-48.461-22.844-7.13-43.915-10.351-70.213-16.851-10.691-2.643-25.532-5.106-47.745-22.723-6.875-5.453-15.404-14.928-22.468-19.915-17.362-12.255-32.623-11.72-43.66-2.809-21.78 17.587-3.574 61.277 45.936 84.766.053-1.373.218-4.181.416-6.352-20.49-8.522-48.682-47.811-36.65-63.095 8.47-10.76 24.426-5.106 40.501 7.568 11.53 9.091 29.18 21.424 46.818 26.901 20.681 6.422 38.283 7.694 55.573 11.647 46.373 10.602 81.822 34.269 73.096 47.793-3.404 5.277-18.35.751-19.047.653-.518 1.72-1.067 3.65-1.735 5.299z"/></g></svg></g><g transform="translate(337.0 81.0) rotate(0.0 387.5 382.0) scale(0.9769010178678347 0.976495098352484)"><svg width="793.325" height="782.39" viewBox="0 0 793.325 782.39"><linearGradient id="d" gradientUnits="userSpaceOnUse" x1="222.622" x2="1011.373" y1="977.29" y2="-334.19"><stop offset=".172" stop-color="#65c400"/><stop offset=".563" stop-color="#c8ff00"/></linearGradient><linearGradient id="e" gradientUnits="userSpaceOnUse" x1="271.841" x2="215.196" y1="95.395" y2="189.182"><stop offset=".126" stop-color="#65c400"/><stop offset=".353" stop-color="#87d800"/><stop offset=".729" stop-color="#c8ff00"/></linearGradient><linearGradient id="f" gradientUnits="userSpaceOnUse" x1="246.285" x2="276.588" y1="137.483" y2="69.957"><stop offset=".126" stop-color="#65c400"/><stop offset=".429" stop-color="#87d800"/><stop offset=".93" stop-color="#c8ff00"/></linearGradient><ellipse cx="7.752" cy="132.284" fill="#030a24" rx="7.915" ry="6.468" transform="matrix(.9359 -.3523 .3523 .9359 -46.1116 11.2144)"/><g fill="#ff4a8b"><path d="M8.105 149.269c-2.211 0-3.896-.709-4.606-2.126-1.413-2.822 1.732-7.059 7.317-9.856 2.504-1.254 5.097-1.99 7.302-2.072 2.476-.089 4.246.658 4.975 2.112s.271 3.317-1.288 5.249c-1.386 1.717-3.527 3.353-6.03 4.607-2.78 1.391-5.482 2.086-7.67 2.086zm10.411-12.061c-.106 0-.214.002-.324.006-1.926.072-4.227.732-6.479 1.861-4.584 2.296-7.173 5.68-6.426 7.172.746 1.492 5.01 1.443 9.591-.853 2.254-1.129 4.161-2.576 5.371-4.075 1.007-1.248 1.401-2.405 1.056-3.096h-.001c-.323-.644-1.354-1.015-2.788-1.015zm11.905 44.073c-1.217 0-2.226-.367-2.953-1.095-1.278-1.278-1.443-3.421-.465-6.035.882-2.356 2.612-4.899 4.874-7.16 2.261-2.261 4.804-3.992 7.16-4.874 2.611-.978 4.758-.814 6.034.465 1.278 1.278 1.443 3.421.466 6.035-.882 2.356-2.612 4.899-4.874 7.16s-4.805 3.992-7.161 4.874c-1.124.42-2.162.629-3.081.63zm11.694-17.798c-.668 0-1.475.168-2.377.506-2.095.784-4.384 2.352-6.447 4.415s-3.632 4.353-4.415 6.447c-.678 1.81-.676 3.238.006 3.919.683.681 2.112.682 3.919.006 2.095-.784 4.385-2.352 6.448-4.415s3.631-4.353 4.415-6.447c.677-1.81.675-3.239-.007-3.92-.341-.34-.871-.511-1.542-.511zm22.969 43.951c-.905 0-1.722-.23-2.407-.715-3.221-2.274-2.133-9.168 2.477-15.693 4.608-6.524 10.738-9.853 13.962-7.58 3.221 2.275 2.134 9.169-2.476 15.694-3.628 5.137-8.202 8.294-11.556 8.294zm11.581-22.715c-2.405 0-6.448 2.605-9.879 7.462-4.163 5.895-4.899 11.533-2.955 12.906 1.942 1.367 7.011-1.205 11.176-7.101 4.163-5.895 4.898-11.533 2.954-12.906-.342-.242-.782-.361-1.296-.361zm37.142 38.486c-.327 0-.652-.037-.974-.112-2.243-.529-3.864-2.765-4.564-6.295-.64-3.224-.463-7.241.497-11.313 2.085-8.844 7.141-14.971 11.504-13.939 4.365 1.029 6.151 8.764 4.067 17.608-1.932 8.194-6.411 14.051-10.53 14.051zm5.474-29.498c-2.646 0-6.524 4.765-8.3 12.299-.887 3.763-1.058 7.438-.48 10.35.509 2.566 1.55 4.215 2.854 4.522 2.644.637 6.884-4.256 8.768-12.245 1.884-7.991.261-14.251-2.374-14.873a2.01 2.01 0 0 0-.468-.053zm62.495 21.668c-4.584.001-9.611-6.623-11.821-15.885-1.106-4.637-1.32-9.208-.604-12.874.769-3.935 2.544-6.425 4.996-7.01 2.447-.587 5.16.834 7.623 3.999 2.295 2.947 4.168 7.124 5.273 11.76 2.385 9.992.456 18.727-4.392 19.884a4.597 4.597 0 0 1-1.075.126zm-6.345-33.895c-.212 0-.419.023-.619.071-1.622.387-2.897 2.373-3.499 5.448-.662 3.391-.454 7.662.587 12.026 2.265 9.495 7.257 15.053 10.487 14.277 3.235-.772 5.178-7.979 2.911-17.475-1.041-4.364-2.783-8.269-4.906-10.995-1.687-2.165-3.457-3.352-4.961-3.352zm-.852-.901h.01zm73.625-10.42c-1.382 0-2.919-.22-4.586-.663-4.604-1.225-9.731-4.027-14.44-7.892-10.089-8.282-14.887-18.553-10.923-23.384 1.982-2.415 5.753-3.033 10.625-1.737 4.604 1.225 9.731 4.027 14.44 7.892 4.708 3.864 8.456 8.347 10.555 12.624 2.22 4.523 2.351 8.344.367 10.759-1.302 1.59-3.381 2.4-6.038 2.401zm-23.888-32.332c-2.04 0-3.611.562-4.514 1.663-3.146 3.832 1.729 13.251 10.646 20.569 4.492 3.687 9.353 6.352 13.686 7.504 4.008 1.066 7.13.676 8.563-1.073 1.436-1.748 1.21-4.886-.617-8.61-1.975-4.025-5.536-8.272-10.028-11.959s-9.352-6.352-13.686-7.505c-1.486-.395-2.849-.589-4.05-.589zm-5.287 1.028h.01zm48.517-73.516c-2.976 0-5.766-.316-8.211-.946-4.879-1.257-7.865-3.645-8.409-6.721-1.089-6.154 8.128-12.755 20.982-15.029 12.853-2.273 23.775.767 24.864 6.92 1.089 6.154-8.129 12.755-20.983 15.029a47.662 47.662 0 0 1-8.243.747zm12.569-21.434a45.44 45.44 0 0 0-7.858.707c-11.357 2.009-20.224 7.83-19.361 12.71.395 2.227 2.924 4.098 6.94 5.133 4.341 1.119 9.883 1.179 15.606.166 11.358-2.009 20.225-7.83 19.362-12.71-.657-3.713-6.791-6.006-14.689-6.006zm-47.723-.345c-2.371 0-5.073-1.269-7.84-3.724-3.562-3.162-6.886-7.969-9.356-13.536-2.471-5.567-3.807-11.256-3.761-16.02.048-5.039 1.647-8.511 4.504-9.779 2.854-1.267 6.505-.124 10.273 3.22 3.562 3.162 6.886 7.969 9.356 13.536 5.295 11.932 4.969 23.264-.743 25.799a5.924 5.924 0 0 1-2.433.504zM218.359 2.006c-.58 0-1.12.107-1.609.324-2.066.917-3.275 3.822-3.314 7.97-.043 4.483 1.231 9.878 3.589 15.189 2.357 5.312 5.502 9.876 8.856 12.852 3.103 2.752 6.066 3.808 8.135 2.888 4.53-2.011 4.404-12.616-.274-23.159-2.357-5.312-5.502-9.875-8.856-12.852-2.37-2.101-4.658-3.212-6.527-3.212zm-2.015-.59h.01zm-9.912 107.72c-1.912 0-3.514-.548-4.707-1.642-2.304-2.111-2.714-5.913-1.155-10.704 1.474-4.53 4.552-9.498 8.667-13.988s8.797-7.989 13.181-9.852c4.64-1.97 8.462-1.891 10.764.219 2.304 2.111 2.714 5.913 1.155 10.704-1.474 4.53-4.552 9.498-8.667 13.988s-8.796 7.989-13.181 9.852c-2.235.949-4.281 1.423-6.057 1.423zm22.029-35.601c-1.502 0-3.292.419-5.262 1.256-4.127 1.753-8.562 5.078-12.488 9.362-3.927 4.284-6.853 8.992-8.239 13.255-1.283 3.944-1.063 7.083.604 8.61 1.667 1.529 4.813 1.474 8.63-.147 4.127-1.753 8.562-5.078 12.488-9.362 3.927-4.284 6.853-8.992 8.239-13.255 1.283-3.944 1.063-7.083-.604-8.61-.806-.74-1.96-1.109-3.368-1.109zm47.15 64.507a5.983 5.983 0 0 1-2.579-.562c-2.826-1.334-4.344-4.844-4.273-9.882.066-4.763 1.535-10.419 4.137-15.927 5.574-11.803 14.366-18.96 20.018-16.291 2.826 1.334 4.344 4.844 4.273 9.882-.066 4.763-1.535 10.42-4.137 15.928-2.601 5.507-6.036 10.235-9.672 13.312-2.762 2.336-5.434 3.54-7.767 3.54zm14.69-41.231c-4.594 0-11.265 6.539-15.598 15.713-2.481 5.255-3.883 10.618-3.945 15.101-.058 4.147 1.082 7.08 3.127 8.045 2.049.967 5.035-.018 8.2-2.696 3.423-2.896 6.674-7.385 9.155-12.64s3.883-10.618 3.945-15.102c.058-4.147-1.082-7.08-3.127-8.045a4.073 4.073 0 0 0-1.757-.376zm84.997 37.898c-6.207 0-12.215-9.699-13.896-22.71-1.747-13.542 1.951-24.804 8.42-25.639 3.237-.418 6.534 1.816 9.31 6.284 2.63 4.236 4.528 10.052 5.345 16.376 1.748 13.542-1.95 24.804-8.419 25.639-.253.034-.507.05-.76.05zm-4.729-46.397c-.165 0-.328.01-.49.031-5.178.668-8.242 11.384-6.691 23.399s7.229 21.599 12.415 20.934c5.178-.669 8.242-11.384 6.69-23.4-.78-6.047-2.577-11.579-5.06-15.577-2.146-3.456-4.619-5.387-6.864-5.387zm-.619-.96h.01zm365.671 295.974c-2.436 0-4.935-.065-7.497-.198-30.594-1.578-66.681-12.434-101.614-30.568s-64.577-41.399-83.473-65.513c-19.184-24.48-25.049-47.014-16.517-63.451s30.336-24.604 61.397-23.004c30.593 1.578 66.68 12.434 101.613 30.568 34.933 18.135 64.577 41.4 83.473 65.513 19.184 24.48 25.05 47.015 16.518 63.452-7.827 15.08-26.829 23.201-53.9 23.201zM580.374 203.795c-25.707 0-43.622 7.476-50.834 21.369-7.882 15.184-2.138 36.415 16.176 59.785 18.602 23.737 47.852 46.677 82.362 64.591 70.844 36.776 141.912 40.823 158.424 9.017l1.51.784-1.51-.784c16.51-31.805-27.694-87.601-98.539-124.377-34.51-17.915-70.103-28.637-100.22-30.19-2.521-.131-4.98-.195-7.369-.195zm-12.732-47.455c-5.602 0-10.361-1.567-13.872-4.865-13.388-12.579-2.775-44.89 24.16-73.558 26.936-28.67 58.523-41.27 71.91-28.695 13.388 12.579 2.775 44.889-24.16 73.559-19.873 21.151-42.278 33.559-58.038 33.559zm68.324-109.005c-14.774 0-36.732 12.288-55.851 32.635-25.354 26.985-36.251 58.081-24.291 69.318s42.315-1.576 67.67-28.562c25.354-26.986 36.251-58.082 24.291-69.318-2.941-2.764-7-4.073-11.819-4.073zm25.452 593.211c-14.791 0-32.629-3.832-52.88-11.515-41.576-15.771-88.648-45.912-132.545-84.871-43.896-38.96-79.414-82.118-100.012-121.527-20.948-40.079-23.988-71.726-8.562-89.108 15.429-17.383 47.211-18.121 89.495-2.083 41.575 15.771 88.647 45.912 132.545 84.871 43.896 38.96 79.415 82.119 100.012 121.527 20.948 40.08 23.988 71.726 8.561 89.109-8.039 9.057-20.522 13.597-36.614 13.597zM403.991 324.51c-14.669 0-25.944 4.034-33.099 12.097-14.058 15.838-10.789 45.626 9.203 83.876 20.342 38.922 55.494 81.611 98.979 120.205 43.485 38.595 90.047 68.428 131.108 84.004 40.355 15.308 70.319 15.015 84.376-.824 14.058-15.839 10.79-45.627-9.202-83.877-20.342-38.921-55.493-81.61-98.979-120.205-43.485-38.595-90.048-68.428-131.109-84.004-19.814-7.516-37.124-11.272-51.277-11.272zm85.526-212.199c-3.249 0-6.818-2.094-10.259-6.07-3.999-4.622-7.418-11.303-9.625-18.812-2.208-7.509-2.95-14.977-2.089-21.028.899-6.323 3.463-10.414 7.219-11.518 7.594-2.226 17.221 8.571 21.931 24.589 4.71 16.02 2.456 30.315-5.131 32.546a7.199 7.199 0 0 1-2.046.293zm-12.711-55.718c-.506 0-1 .068-1.479.209-2.917.857-5.032 4.459-5.804 9.881-.821 5.774-.102 12.942 2.027 20.182 2.129 7.241 5.403 13.657 9.22 18.067 3.583 4.142 7.312 6.025 10.228 5.167 6.294-1.851 8.023-15.618 3.777-30.062-3.924-13.346-11.825-23.444-17.969-23.444zm-1.761-.75h.01z"/></g><path d="M7.322 130.913a3.905 3.905 0 0 0-2.155 5.331c7.854 16.557 43.773 80.513 129.655 79.607 104.16-1.099 163.734-111.029 151.977-171.873-9.21-47.663-61.019-49.983-84.573-26.043-31.149 31.66-13.917 93.131 63.505 108.111 50.232 9.719 131.835-.498 224.044-24.052 57.716-14.743 82.226 19.16 84.269 44.6 3.92 48.826-57.791 151.029-224.791 258.029 36 90 112 300 137 377 293-210 349.438-558.045 204.345-681.924-34.043-29.066-99.099-64.25-224.618-26.161-55.34 16.793-133.008 33.118-184.947 28.003-59.769-5.885-74.21-43.691-59.402-59.607 15.377-16.526 37.277-2.553 37.277 18.383 0 40.279-39.83 122.553-113.362 135.83-85.199 15.384-125.357-48.633-133.419-63.457a3.899 3.899 0 0 0-4.805-1.777z" fill="#c8ff00"/><path d="M486.825 782.39c326.198-244.159 278.58-523.614 274.648-549.065-9.294-60.164-57.386-171.094-180.27-176.035-26.954 28.482-11.799 5.759-31.377 49.953 56.426 34.38 19.426 151.38-200.574 297.38z" fill="url(#d)"/><path d="M696.142 627.649a2.322 2.322 0 0 1-1.735-3.862c14.058-15.839 10.789-45.627-9.203-83.877-20.342-38.921-55.493-81.61-98.979-120.205-51.501-45.708-108.807-79.765-153.291-91.101a2.321 2.321 0 0 1 1.146-4.498c45.168 11.51 103.197 45.95 155.227 92.126 43.896 38.96 79.415 82.119 100.012 121.527 20.948 40.08 23.988 71.726 8.562 89.109a2.32 2.32 0 0 1-1.739.781z" fill="#ff4a8b"/><path d="M241.436 119.237c-5.947 12.459-20.582 30.759-20.582 30.759s-.692 21.189 21.973 16.092c0 0 17.684-18.989 27.28-38.967 0 .001-16.063-2.67-28.671-7.884z" fill="url(#e)"/><path d="M252.065 95.212s12 4.6 28.968 6.33c0 0 19.653-50.321-22.678-32.445-1.502 12.705-6.29 26.115-6.29 26.115z" fill="url(#f)"/><path d="M4.363 147.714c-.367 0-.72-.202-.896-.552-1.412-2.821 1.734-7.058 7.318-9.855 5.586-2.797 10.863-2.779 12.275.04a1 1 0 1 1-1.787.896c-.749-1.493-5.008-1.444-9.592.852s-7.173 5.68-6.426 7.172a1 1 0 0 1-.892 1.447zm23.781 32.784a.997.997 0 0 1-.707-.293c-2.504-2.505-.608-8.178 4.409-13.195s10.689-6.916 13.195-4.409a.999.999 0 1 1-1.414 1.414c-1.412-1.409-6.015.056-10.367 4.409-4.354 4.354-5.817 8.958-4.409 10.367a1 1 0 0 1-.707 1.707zm35.079 26.425c-.199 0-.4-.06-.576-.184-3.22-2.274-2.133-9.167 2.476-15.692 2.122-3.004 4.664-5.461 7.159-6.918 2.733-1.596 5.149-1.831 6.804-.662a1 1 0 0 1-1.155 1.634c-.961-.681-2.655-.405-4.641.755-2.254 1.316-4.574 3.569-6.535 6.345-4.162 5.895-4.897 11.533-2.954 12.906a.999.999 0 0 1-.578 1.816zm49.842 16.219c-.086 0-.174-.01-.262-.03-2.243-.529-3.864-2.765-4.564-6.295-.64-3.224-.463-7.241.497-11.313.96-4.073 2.597-7.747 4.608-10.345 2.203-2.846 4.654-4.124 6.895-3.593.611.144.99.756.847 1.368a1.14 1.14 0 0 1-1.368.846c-1.303-.302-2.972.702-4.574 2.771-1.816 2.347-3.306 5.711-4.192 9.474-.888 3.763-1.059 7.438-.48 10.35.509 2.566 1.55 4.215 2.854 4.522.611.145.99.757.847 1.368a1.143 1.143 0 0 1-1.108.877zm68.679-7.748c-4.583 0-9.61-6.623-11.82-15.885-1.106-4.636-1.321-9.208-.604-12.874.769-3.935 2.543-6.425 4.996-7.01a1 1 0 0 1 .465 1.946c-1.622.387-2.897 2.373-3.498 5.449-.663 3.391-.455 7.662.587 12.026 2.266 9.495 7.255 15.05 10.487 14.277a1 1 0 1 1 .465 1.945 4.623 4.623 0 0 1-1.078.126zm66.408-45.223c-5.181 0-12.295-3.041-19.004-8.547-4.708-3.864-8.456-8.347-10.555-12.624-2.221-4.523-2.352-8.345-.369-10.76a1.001 1.001 0 0 1 1.546 1.268c-1.435 1.748-1.209 4.886.618 8.61 1.976 4.025 5.537 8.272 10.029 11.959 8.915 7.317 19.103 10.263 22.25 6.432a.999.999 0 1 1 1.546 1.268c-1.329 1.621-3.45 2.394-6.061 2.394zm19.363-104.813c-2.976 0-5.766-.316-8.21-.946-4.879-1.257-7.865-3.645-8.409-6.721a1 1 0 1 1 1.969-.348c.395 2.227 2.924 4.098 6.94 5.133 4.342 1.118 9.884 1.178 15.606.166 11.357-2.009 20.224-7.83 19.361-12.71a1 1 0 1 1 1.969-.348c1.089 6.154-8.128 12.755-20.982 15.029a47.765 47.765 0 0 1-8.244.745zm-33.124-22.195a1 1 0 0 1-.406-1.915c4.53-2.011 4.404-12.617-.274-23.159-4.68-10.541-12.45-17.75-16.991-15.74a1 1 0 0 1-.81-1.828c5.704-2.533 14.334 4.826 19.63 16.757 5.295 11.931 4.969 23.263-.743 25.799a1.002 1.002 0 0 1-.406.086zm-32.022 64.613a1 1 0 0 1-.676-.263c-4.606-4.223-1.307-15.069 7.513-24.692s19.339-13.852 23.944-9.632a1 1 0 0 1-1.351 1.475c-3.656-3.35-13.325 1.006-21.118 9.509s-11.29 18.517-7.636 21.866a1 1 0 0 1-.676 1.737zm71.058 29.819a.997.997 0 0 1-.426-.096c-5.651-2.668-5.712-14.005-.138-25.809 5.574-11.803 14.37-18.961 20.019-16.291a1.001 1.001 0 0 1-.853 1.809c-4.475-2.117-12.431 4.905-17.356 15.336-4.925 10.43-5.3 21.03-.817 23.146a1.001 1.001 0 0 1-.429 1.905zm101.832-2.866c-2.98 0-5.986-2.218-8.541-6.333-2.631-4.236-4.528-10.052-5.346-16.376-1.747-13.542 1.951-24.804 8.42-25.639a.99.99 0 0 1 1.12.864 1 1 0 0 1-.864 1.12c-5.178.668-8.242 11.384-6.691 23.4.78 6.047 2.577 11.579 5.06 15.577 2.304 3.709 4.97 5.662 7.354 5.356a1.001 1.001 0 0 1 .256 1.984 6.384 6.384 0 0 1-.768.047zm179.439 17.146c-.368 0-.737-.135-1.027-.407-13.388-12.579-2.775-44.889 24.16-73.558 26.935-28.668 58.521-41.273 71.91-28.695a1.5 1.5 0 0 1-2.055 2.186c-11.961-11.237-42.316 1.577-67.67 28.562s-36.251 58.082-24.291 69.318c.604.567.633 1.517.065 2.12a1.488 1.488 0 0 1-1.092.474zm-65.32-39.665c-7.199 0-15.591-10.27-19.887-24.881-4.71-16.02-2.456-30.315 5.131-32.546a1 1 0 0 1 .564 1.919c-6.294 1.851-8.023 15.618-3.777 30.063 4.248 14.445 13.158 25.091 19.448 23.235a1 1 0 0 1 .564 1.919 7.207 7.207 0 0 1-2.043.291zm298.633 248.832a1.703 1.703 0 0 1-1.509-2.485c16.51-31.805-27.694-87.601-98.539-124.377-34.51-17.915-70.103-28.637-100.22-30.19-29.659-1.528-50.321 5.99-58.203 21.175a1.705 1.705 0 0 1-2.294.726 1.703 1.703 0 0 1-.726-2.294c8.532-16.437 30.336-24.604 61.397-23.004 30.593 1.578 66.68 12.434 101.613 30.568 34.933 18.135 64.577 41.4 83.473 65.513 19.184 24.48 25.05 47.015 16.518 63.452a1.7 1.7 0 0 1-1.51.916z" fill="#ff4a8b"/></svg></g><g transform="translate(526.0 236.0) rotate(0.0 216.5 341.0) scale(1.0007835233589346 1.0008673205079475)"><svg width="432.661" height="681.409" viewBox="0 0 432.661 681.409"><path d="M398.111 48c-19.32-22.436-73.532-33.466-113.617-34.158l76.447 96.531V584.36l-76.447 96.531c40.085-.692 90.043-11.018 110.979-31.954 10.553-10.553 16.058-23.847 16.058-41.501V87.297c-.001-17.654-5.506-30.105-13.42-39.297z" fill="#4c4cd6"/><path d="m283.446 681.409 76.995-97.224V110.547l-76.995-97.223 1.057.018c21.394.37 44.982 3.629 64.717 8.943 23.342 6.285 40.379 15.064 49.271 25.39 9.111 10.58 13.54 23.541 13.54 39.623v520.138c0 17.261-5.301 30.952-16.204 41.855-21.212 21.212-71.195 31.406-111.323 32.101zm2.097-667.047 75.897 95.837v474.334l-.108.137-75.789 95.7c39.743-.849 88.746-10.958 109.575-31.787 10.707-10.707 15.911-24.166 15.911-41.148V87.297c0-15.832-4.35-28.58-13.298-38.971C383.907 32.271 341 15.52 285.543 14.362z" fill="#fff"/><path d="M281.289 14.399 66.105 36.638c-36.841 3.807-64.84 34.85-64.84 71.887v477.746c0 37.037 28 68.079 64.84 71.887l215.183 22.239c42.6 4.403 79.652-29.018 79.652-71.844V86.243c.001-42.826-37.052-76.247-79.651-71.844z" fill="#6da2ef"/><path d="M288.685 681.279a72.4 72.4 0 0 1-7.448-.384L66.053 658.656A72.588 72.588 0 0 1 .765 586.272V108.525a72.588 72.588 0 0 1 65.288-72.384l215.184-22.239.052.498-.052-.498c20.455-2.111 40.925 4.571 56.188 18.337s24.017 33.45 24.017 54.004v522.311c0 20.554-8.754 40.238-24.017 54.005-13.408 12.093-30.842 18.72-48.74 18.72zm0-666.761c-2.443 0-4.894.125-7.345.378L66.157 37.136a71.59 71.59 0 0 0-64.392 71.389v477.747a71.592 71.592 0 0 0 64.392 71.39l215.184 22.239c20.169 2.083 40.361-4.508 55.414-18.085s23.687-32.99 23.687-53.262V86.243c0-20.271-8.634-39.685-23.687-53.262-13.223-11.926-30.418-18.463-48.07-18.463z" fill="#fff"/><path d="M294.518 109.056c.007-18.148-15.498-29.528-33.584-28.028L88.269 95.349c-17.588 1.459-31.12 16.16-31.12 33.808v438.747c0 17.649 13.532 32.35 31.12 33.808l172.664 14.321c18.837 1.838 33.007-5.183 33.462-23.44l.081-244.064z" fill="#4c4cd6"/><path d="M266.59 616.82c-1.832 0-3.733-.095-5.705-.287L88.228 602.211c-17.708-1.469-31.579-16.538-31.579-34.307V129.158c0-17.769 13.871-32.838 31.579-34.307L260.893 80.53c9.729-.81 18.979 2.107 25.374 7.995 5.729 5.275 8.755 12.375 8.751 20.531l-.042 239.475-.081 244.063c-.188 7.552-2.669 13.485-7.375 17.648-4.905 4.34-12.072 6.578-20.93 6.578zm-2.514-535.423c-1.026 0-2.06.043-3.101.129L88.31 95.847c-17.193 1.426-30.661 16.058-30.661 33.31v438.747c0 17.252 13.468 31.884 30.661 33.311l172.665 14.321c11.235 1.095 20.176-.995 25.882-6.043 4.489-3.972 6.857-9.661 7.038-16.912l.081-244.051.042-239.475c.003-7.87-2.911-14.715-8.429-19.795-5.508-5.072-13.219-7.863-21.513-7.863z" fill="#fff"/><path d="m294.518 588.006-.165-481.684-193.525 15.791c-7.724.63-13.672 7.083-13.672 14.833v426.605c0 7.75 5.948 14.203 13.672 14.833l193.525 15.791z" fill="#6da2ef"/><path d="m294.353 594.675-.041-.002-193.525-15.791c-7.924-.646-14.131-7.38-14.131-15.331V136.946c0-7.951 6.207-14.685 14.131-15.331l193.525-15.791a.5.5 0 0 1 .541.499l.165 481.684v.014l-.165 6.169a.496.496 0 0 1-.5.485zm-.5-487.81-192.984 15.747c-7.409.604-13.213 6.9-13.213 14.334v426.605c0 7.434 5.804 13.73 13.213 14.335l192.999 15.748.15-5.637z" fill="#fff"/><path d="M261.14 591.921h-1V402.262a20.693 20.693 0 0 0-9.359-17.345l-104.73-68.781a21.689 21.689 0 0 1-9.811-18.181V119.183h1v178.772a20.693 20.693 0 0 0 9.359 17.345l104.73 68.781a21.689 21.689 0 0 1 9.811 18.181z" fill="#fff"/><circle cx="172.514" cy="56.565" fill="#ff4a8b" r="19.213"/><circle cx="217.322" cy="52.166" fill="#c8ff00" r="9.286"/><circle cx="128.263" cy="60.354" fill="#c8ff00" r="9.286"/><path d="m359.985 360.719-65.467-21.921v-15.851l65.467 21.921z" fill="#ff4a8b"/><path d="m359.985 402.49-65.467-21.92v-15.851l65.467 21.92z" fill="#fff"/><path d="m359.985 445.622-65.467-21.92v-15.851l65.467 21.92zM1.889 362.989l54.472-21.921v-15.851L1.889 347.138z" fill="#ff4a8b"/><path d="m1.889 400.76 54.472-21.92v-15.851l-54.472 21.92z" fill="#fff"/><path d="m1.889 440.892 54.472-21.92v-15.851l-54.472 21.92z" fill="#ff4a8b"/><path d="M308.709 570.955a3.099 3.099 0 0 1-3.099-3.099v-28.057a3.099 3.099 0 0 1 6.198 0v28.057a3.099 3.099 0 0 1-3.099 3.099zm-297.57-15.998a3.099 3.099 0 0 1-3.099-3.099v-28.057a3.099 3.099 0 0 1 6.198 0v28.057a3.098 3.098 0 0 1-3.099 3.099zm15.81.455a3.099 3.099 0 0 1-3.099-3.099v-28.057a3.099 3.099 0 0 1 6.198 0v28.057a3.099 3.099 0 0 1-3.099 3.099zm16.296 1.421a3.099 3.099 0 0 1-3.099-3.099v-28.057a3.099 3.099 0 0 1 6.198 0v28.057a3.098 3.098 0 0 1-3.099 3.099z" fill="#4c4cd6"/><path d="m49.082 230.345-39.28 1.29v-39.302l39.28-1.267z" fill="#ff4a8b"/><path d="m41.505 221.468-24.126.78v-23.106l24.126-.854z" fill="#4c4cd6"/><path d="M16.935 222.707v-23.995l25.014-.886v24.072zm.889-23.135v22.218l23.236-.752v-22.289z" fill="#fff"/><path d="M17.379 199.589a.446.446 0 0 1-.3-.116l-7.255-6.556a.446.446 0 1 1 .6-.662l7.255 6.556a.446.446 0 0 1-.3.778zm24.125-.854a.443.443 0 0 1-.322-.139.445.445 0 0 1 .014-.631l7.242-6.933a.444.444 0 0 1 .631.014.445.445 0 0 1-.014.631l-7.242 6.933a.443.443 0 0 1-.309.125zm7.242 31.763a.45.45 0 0 1-.342-.159l-7.242-8.583a.447.447 0 0 1 .684-.576l7.242 8.583a.447.447 0 0 1-.342.735zm-38.655-.37a.447.447 0 0 1-.316-.764l7.002-7.002a.45.45 0 0 1 .633 0 .45.45 0 0 1 0 .633l-7.002 7.002a.45.45 0 0 1-.317.131z" fill="#fff"/><circle cx="26.949" cy="490.253" fill="#c8ff00" r="6.107"/><path d="M326.319 572.35a3.099 3.099 0 0 1-3.099-3.099v-28.057a3.099 3.099 0 0 1 6.198 0v28.057a3.099 3.099 0 0 1-3.099 3.099zm18.217.362a3.099 3.099 0 0 1-3.099-3.099v-28.057a3.099 3.099 0 0 1 6.198 0v28.057a3.098 3.098 0 0 1-3.099 3.099z" fill="#4c4cd6"/><path d="m91.377 95.091 6.079 28.138" fill="#6da2ef"/><path d="m90.887 95.19.976-.21 6.08 28.136-.977.21z" fill="#fff"/><path d="m57.172 128.175 29.984 6.493" fill="#6da2ef"/><path d="m57.065 128.673.212-.978 29.981 6.495-.211.977z" fill="#fff"/><g fill="#c8ff00"><circle cx="326.319" cy="504.557" r="6.107"/><circle cx="18.537" cy="259.376" r="1.934"/><circle cx="28.99" cy="258.851" r="1.934"/><circle cx="39.47" cy="258.328" r="1.934"/><circle cx="23.569" cy="252.392" r="1.934"/><circle cx="34.01" cy="252.111" r="1.934"/></g><path d="m45.683 283.438-32.236.34a2.637 2.637 0 1 1-.055-5.275l32.236-.34a2.637 2.637 0 1 1 .055 5.275zm249.175 30.509-.68-.733 36.613-33.972V165.459l-36.617-34.673.688-.726 36.929 34.969v114.648z" fill="#fff"/><circle cx="270.557" cy="48.334" fill="#4c4cd6" r="5.454"/><path d="M284.36 62.24c-1.074 0-2.119-.085-3.13-.254-7.163-1.194-11.613-6.425-11.613-13.651a.94.94 0 1 1 1.88 0c0 6.244 3.848 10.764 10.041 11.796 14.3 2.379 27.228-12.291 32.619-28.017 7.217-21.05 22.798-27.667 33.916-26.931 13.665.897 23.08 9.203 28.782 25.392a.94.94 0 1 1-1.773.625c-5.426-15.401-14.301-23.297-27.132-24.14-10.473-.695-25.143 5.622-32.014 25.665-7.107 20.727-20.714 29.514-31.576 29.515z" fill="#ff4a8b"/><circle cx="76.713" cy="65.752" fill="#4c4cd6" r="5.454"/><path d="M91.315 82.969c-2.472 0-4.916-.584-7.179-1.767-5.252-2.746-8.378-8.148-8.363-14.452a.94.94 0 0 1 .94-.938h.002a.94.94 0 0 1 .938.943c-.014 5.588 2.736 10.366 7.354 12.78 4.721 2.469 10.37 1.963 15.109-1.349 12.255-8.56 12.137-27.354 12.023-45.528l-.017-2.917C112.04 10.377 122.239 1.829 131.811.285c6.396-1.031 13.208.732 19.182 4.965 6.476 4.588 11.409 11.643 14.268 20.399a.94.94 0 1 1-1.788.584C158.98 12.472 146.765-.22 132.11 2.141c-13.428 2.166-18.158 15.673-18.107 27.591l.017 2.913c.117 18.66.237 37.956-12.827 47.082-3.075 2.15-6.501 3.242-9.878 3.242z" fill="#ff4a8b"/><path d="m92.052 602.027 5.263-24.36" fill="#6da2ef"/><path d="m91.587 601.9 5.26-24.361.977.21-5.26 24.362z" fill="#fff"/><path d="m57.149 572.174 29.984-6.494" fill="#6da2ef"/><path d="m57.026 571.704 29.988-6.476.21.976-29.987 6.476zm120.318 98.27-18.054-27.312-53.886-4.671-23.327 22.145-.69-.725 23.655-22.456 54.817 4.752.133.202 18.186 27.514zm63.291-35.586-40.581-3.743-9.664-19.394.895-.445 9.416 18.894 39.481 3.641 14.141-18.13.789.615zm53.328-364.778h1v213.447h-1zM56.649 303.607h1v158.036h-1z" fill="#fff"/></svg></g><g transform="translate(145.0 354.0) rotate(0.0 206.5 123.0) scale(1.0005669071580507 1.0019019846619397)"><svg width="412.766" height="245.533" viewBox="0 0 412.766 245.533"><radialGradient id="g" cx="6.475" cy="1512.793" gradientTransform="matrix(.9351 .3544 .3544 -.9351 -239.8267 1464.943)" gradientUnits="userSpaceOnUse" r="52.632"><stop offset="0" stop-color="#030a24"/><stop offset="1" stop-color="#2c25a3"/></radialGradient><circle cx="302.394" cy="52.646" fill="url(#g)" r="52.632"/><path d="M326.176 34.203a62.61 62.61 0 0 1 2.276 10.599c.493 3.941-1.141 7.269-1.366 10.736a67.408 67.408 0 0 0 .233 9.176 1.115 1.115 0 0 1-1.197 1.187 14.809 14.809 0 0 1-3.62-.584c-4.306 10.054-8.941 18.769-15.81 18.489-4.112-.168-13.061-8.044-16.965-17.24l-6.806-25.669c6.793-3.763 18.767-8.976 33.677-8.089 3.228.193 6.431.659 9.578 1.395z" fill="#f94680"/><path d="M291.208 60.209c1.941 16.829 6.628 25.828 11.898 29.757 3.794 2.827 8.517 3.483 10.551 1.57 3.135-2.947 3.625-7.723 7.573-9.325 4.016-1.63 8.578.576 10.08 4.642.54 1.461.632 3.05.266 4.564-.659 2.91-3.174 3.979-5.979 4.728 4.648-3.162 1.623-8.286-1.62-7.374-4.077 1.146-3.044 11.277-15.209 16.129-8.865 3.536-14.595-1.569-19.742-7.831-6.954-8.461-12.826-21.575-6.009-31.727-5.145 2.44 8.191-5.133 8.191-5.133zm13.417-19.747a80.578 80.578 0 0 1 22.42-3.127 3.76 3.76 0 0 0 2.115-1.921c1.306-3.188-2.335-13.857-11.919-14.451l-18.966 8.953z" fill="#fff"/><path d="m317.244 20.964 14.794-9.103 2.787-.685C311.918-6.721 278.84-2.66 260.943 20.247s-13.836 55.985 9.071 73.882a52.639 52.639 0 0 0 28.909 11.042l.389-.461a42.876 42.876 0 0 1-9.825-14.953c-5.343-13.842-1.668-26.318-.304-30.315l13.189-27.623z" fill="#6da2ef"/><path d="M299.513 39.772a80.317 80.317 0 0 1 24.548-19.428 78.867 78.867 0 0 1 14.742-5.723 52.22 52.22 0 0 0-5.927-4.898 73.655 73.655 0 0 0-14.579 6.886 74.805 74.805 0 0 0-21.626 20.255z" fill="#c8ff00"/><path d="M345.336 55.153c-.971-.017-.454-5.114-3.386-13.133-3.182-8.703-7.412-12.598-6.628-13.317.933-.856 8.474 3.253 11.33 10.568 2.935 7.519-.064 15.905-1.316 15.882z" fill="#fff"/><ellipse cx="308.302" cy="56.625" fill="#d63871" rx="3.255" ry="6.626" transform="matrix(.6524 -.7578 .7578 .6524 64.2434 253.328)"/><ellipse cx="293.04" cy="46.771" fill="#030a24" rx="19.803" ry="15.641" transform="matrix(.3544 -.9351 .9351 .3544 145.445 304.2115)"/><ellipse cx="291.588" cy="46.221" fill="#c8ff00" rx="19.803" ry="14.09" transform="matrix(.3544 -.9351 .9351 .3544 145.0224 302.4995)"/><ellipse cx="287.329" cy="44.607" fill="#030a24" rx="12.359" ry="9.534" transform="matrix(.3544 -.9351 .9351 .3544 143.7822 297.4742)"/><ellipse cx="284.798" cy="43.648" fill="#c8ff00" rx="12.359" ry="8.813" transform="matrix(.3544 -.9351 .9351 .3544 143.0455 294.489)"/><path d="m302.935 117.111 5.833-12.211a91.851 91.851 0 0 1-15.019-5.147c-10.13-4.508-20.451-8.192-28.382-15.94l-3.736 5.005z" fill="#c8ff00"/><ellipse cx="320.21" cy="54.384" rx="3.03" ry="1.649" transform="matrix(.1866 -.9824 .9824 .1866 207.0374 358.825)"/><path d="M316.532 47.608a.83.83 0 0 1-.245-1.408 6.818 6.818 0 0 1 3.27-1.54 6.873 6.873 0 0 1 4.191.629.83.83 0 1 1-.741 1.487 5.097 5.097 0 0 0-5.638.687.833.833 0 0 1-.837.145zm1.238 24.717a10.73 10.73 0 0 1-4.653-3.43.416.416 0 0 1 .652-.514 9.89 9.89 0 0 0 5.581 3.558.415.415 0 1 1-.187.809c-.472-.11-.938-.251-1.393-.423z"/><path d="M355.751 203.703s2.585 4.181 5.011 4.691c2.168.456 3.766-1.66 1.915-5.33-1.851-3.669-6.926.639-6.926.639z" fill="#fff"/><path d="M350.028 210.831c1.342.411 3.319-.085 2.468-3.66 1.447 2.128 3.388 3.084 4.638 2.851 2.745-.511 1.397-4.188.723-4.915 7.465 4.5 9.585.771 6.191-3.447-6.574-8.17-20.258-14.256-25.66-16.34-10.915-4.213-23.082-6.884-25.333-7.52-3.651-1.031-3.688-.903-7.308-2.039l-6.594-.065-19.68 19.135c8.589 5.195 19.546 5.768 29.554 7.93 4.968 3.289 14.311 3.966 18.702 4.581 4.255.596 10.073 5.976 14.325 6.463 5.249.601 2.015-6.633-5.9-13.186 1.62.851 3.065.989 6.639 2.586 2.434 2.84 4.597 6.817 7.235 7.626z" fill="#fff"/><path d="M312.878 179.142c5.187 4.383 1.204 20.335-3.849 23.619-15.384-1.387-57.754-2.723-63.865-17.455-5.586-16.592-1.773-76.564 4.866-82.685l31.269-2.481c7.033 7.91-1.633 56.468-1.587 65.629 3.803 1.939 19.965 6.194 33.166 13.373z" fill="#6da2ef"/><path d="M313.312 177.772c-2.181-.925-9.168-2.844-9.168-2.844 3.821 4.094-1.376 26.931-7.106 26.909l11.543.909c7.021.774 13.18-21.389 4.731-24.974zm-76.849-1.924c-.429-2.599-.046-4.582 1.263-5.519 3.151-2.253 10.3 2.528 16.275 10.885 5.975 8.356 8.186 16.668 5.037 18.921s-10.299-2.529-16.274-10.886c-3.491-4.882-5.698-9.75-6.301-13.401zm1.747-4.844c-2.68 1.918-.284 10.05 5.229 17.762s12.436 12.609 15.117 10.694c2.68-1.916.283-10.05-5.23-17.762-5.513-7.713-12.441-12.609-15.116-10.694z" fill="#c8ff00"/><path d="M154.867 166.942c-8.008-5.288-27.983-27.878-32.91-36.004-3.758-4.938-29.307 14.829-28.189 22.858 4.148 10.071 24.415 42.711 51.714 47.301" fill="#6da2ef"/><path d="M121.955 130.937c-3.018-5.367-16.196-25.62-22.421-34.589a5.96 5.96 0 0 0-7.13-2.136c-12.493 5.038-39.262 25.874-40.287 36.501a3.43 3.43 0 0 0 1.306 3.058c8.967 7.008 24.411.154 28.707-.813l11.634 20.838c-1.115-8.03 24.434-27.798 28.191-22.859z" fill="#fff"/><path d="M93.618 154.186a.411.411 0 0 1-.216-.186l-11.479-20.564c-.673.171-1.565.453-2.657.799-6.448 2.041-18.442 5.842-26.098-.138a3.856 3.856 0 0 1-1.467-3.426c1.065-11.014 28.521-31.998 40.546-36.847a6.35 6.35 0 0 1 7.625 2.285c6.042 8.703 19.363 29.147 22.441 34.622a.416.416 0 0 1-.693.456c-.695-.915-2.548-.809-5.215.301-8.373 3.485-23.063 16.279-22.233 22.25a.416.416 0 0 1-.558.446zm-11.34-21.615c.092.035.168.1.216.186l10.915 19.55c1.243-6.767 14.546-18.198 22.681-21.583 2.015-.836 3.597-1.144 4.727-.915-4.092-6.882-16.007-25.13-21.625-33.223a5.52 5.52 0 0 0-6.633-1.988c-6.247 2.519-16.022 8.984-24.329 16.085-9.534 8.151-15.255 15.467-15.699 20.07a3.026 3.026 0 0 0 1.149 2.691c7.302 5.71 19.033 1.995 25.335.001 1.28-.403 2.295-.729 3.026-.89a.415.415 0 0 1 .239.015z" fill="#c8ff00"/><path d="M117.587 123.787c-7.017.45-24.176 13.835-28.008 22.507l4.188 7.5c-1.118-8.029 24.431-27.796 28.189-22.858-.821-1.457-2.394-4.019-4.369-7.149zM100.158 97.25c-.214-.312-.423-.614-.624-.903a5.96 5.96 0 0 0-7.13-2.136c-12.493 5.038-39.262 25.874-40.287 36.501a3.43 3.43 0 0 0 1.306 3.058c.528.412 1.087.782 1.672 1.107-1.945-7.705 38.153-39.961 45.063-37.627zm-18.174 36.097a.416.416 0 0 1-.252-.273c-3.261-10.873 13.981-23.265 23.555-28.299a.415.415 0 0 1 .386.735 75.574 75.574 0 0 0-15.63 11.09c-6.397 6.07-8.925 11.535-7.514 16.24a.414.414 0 0 1-.547.503z" fill="#c8ff00"/><path d="M200.933 127.954c-27.84 2.359-40.424 15.397-51.305 26.649-4.226 3.896-31.595 18.812-36.36 21.955-8.795-5.808-30.73-30.616-36.144-39.54-4.126-5.424-32.184 16.285-30.956 25.103 4.557 11.056 35.292 68.63 65.267 73.669 13.949 3.088 62.099-20.145 99.25-42.101 7.085-4.187 12.971-3.709 23.23-7.844l-6.52-44.948z" fill="#6da2ef"/><path d="M77.123 137.018c-3.315-5.889-17.785-28.135-24.624-37.986a6.548 6.548 0 0 0-7.83-2.346C30.952 102.22 1.555 125.1.434 136.772a3.771 3.771 0 0 0 1.435 3.359c9.847 7.697 26.807.17 31.524-.894l12.776 22.884c-1.229-8.818 26.828-30.527 30.954-25.103z" fill="#fff"/><path d="M46.02 162.509a.413.413 0 0 1-.215-.186L33.18 139.719c-.744.187-1.734.502-2.95.886-7.073 2.235-20.243 6.404-28.617-.146a4.19 4.19 0 0 1-1.592-3.727c1.165-12.086 31.303-35.107 44.5-40.428a6.929 6.929 0 0 1 8.326 2.494c6.63 9.555 21.257 32.003 24.638 38.016a.416.416 0 0 1-.692.455c-.778-1.02-2.829-.907-5.775.319-9.205 3.83-25.355 17.904-24.439 24.475a.417.417 0 0 1-.559.446zm-12.481-23.66c.092.035.168.1.216.186l12.041 21.569c1.226-7.4 15.93-20.049 24.903-23.783 2.261-.941 4.021-1.269 5.259-.982-4.451-7.498-17.607-27.649-23.797-36.568a6.107 6.107 0 0 0-7.334-2.198c-6.863 2.768-17.601 9.87-26.729 17.671-10.477 8.958-16.766 17.002-17.25 22.071a3.366 3.366 0 0 0 1.276 2.992c8.032 6.279 20.934 2.199 27.86.007 1.405-.445 2.516-.797 3.319-.977a.405.405 0 0 1 .236.012z" fill="#c8ff00"/><path d="M72.326 129.167c-7.705.492-26.549 15.193-30.757 24.717l4.598 8.237c-1.228-8.817 26.829-30.523 30.956-25.103-.901-1.598-2.627-4.414-4.797-7.851zm-19.137-29.142-.685-.991a6.548 6.548 0 0 0-7.83-2.346C30.952 102.22 1.556 125.1.434 136.772a3.771 3.771 0 0 0 1.435 3.359c.58.451 1.194.858 1.836 1.216-2.14-8.464 41.894-43.884 49.484-41.322zm-19.944 39.601a.416.416 0 0 1-.252-.273c-3.57-11.913 15.344-25.506 25.847-31.028a.415.415 0 1 1 .408.724l-.022.012a83.006 83.006 0 0 0-17.175 12.179c-7.037 6.678-9.817 12.691-8.263 17.874a.415.415 0 0 1-.278.516.408.408 0 0 1-.265-.004z" fill="#c8ff00"/><path d="M112.708 177.373a.499.499 0 0 1-.36-.153l-16.809-17.489a.5.5 0 1 1 .721-.693l16.532 17.202 31.661-19.038a.503.503 0 0 1 .687.171.502.502 0 0 1-.171.687l-32.003 19.243a.508.508 0 0 1-.258.07z" fill="#fff"/><path d="M97.785 242.56c-5.813-2.203-9.409-5.415-9.247-8.89.283-5.946 11.468-10.082 25.462-9.415s24.735 5.847 24.452 11.791c-.282 5.944-11.468 10.082-25.463 9.416a50.532 50.532 0 0 1-15.204-2.902zm-8.418-8.852c-.255 5.39 10.359 10.288 23.662 10.923s24.335-3.236 24.593-8.626-10.357-10.287-23.662-10.923-24.334 3.236-24.593 8.626z" fill="#c8ff00"/><path d="M192.686 130.133c3.029 4.593 15.654 17.758 24.197 29.069 6.762 8.955 10.403 18.779 17.031 26.643 8.88-3.394 20.409-9.282 28.206-14.721a119.016 119.016 0 0 0 34.827-38.205l-24.942-45.297-6.824-5.982s-34.866 40.945-72.495 48.493z" fill="#6da2ef"/><path d="M234.219 186.693a.5.5 0 0 1-.205-.956c16.513-7.438 36.571-20.685 46.657-30.814a.5.5 0 0 1 .709.707c-10.16 10.203-30.347 23.539-46.956 31.021a.526.526 0 0 1-.205.042z" fill="#fff"/><path d="M223.77 189.065c-16.465-18.477-21.401-49.723-22.808-61.11l6.652-2.487c1.392 11.077 11.094 49.46 26.3 60.378-2.439 1.049-7.695 2.623-10.144 3.219z" fill="#c8ff00"/><path d="M346.64 103.141c6.395-2.285 18.04 11.557 18.343 17.576-17.873 18.585-31.203 46.191-47.011 44.079-17.154-3.5-67.104-36.909-69.064-45.724l13.554-28.288c10.372-2.111 48.015 29.764 55.96 34.324 3.587-2.315 15.382-14.156 28.218-21.967z" fill="#6da2ef"/><g fill="#fff"><path d="M399.145 100.44c10.883-1.864 15.226-7.629 13.096-9.481-2.799-2.321-8.834 4.276-30.413 1.94-3.772-.408-8.243-.603-12.035-.511-14.043.34-21.894 11.751-21.894 11.751l1.731 9.501c17.149 9.917 20.843 7.088 27.737 4.705-1.602 3.824 5.723 4.286 12.596 1.915 8.511-2.936 8.17-8.255 7.201-9.935 1.219-.813 2.522-2.32 1.646-4.851 1.834-2.554.335-5.034.335-5.034zm-76.457 36.603a.5.5 0 0 1-.499-.473c-.435-8.069-2.766-12.214-2.789-12.255a.5.5 0 0 1 .867-.5c.102.174 2.473 4.367 2.921 12.701a.5.5 0 0 1-.472.526l-.028.001zm-11.107-.946a.5.5 0 0 1-.435-.748c3.724-6.516 4.231-11.883 4.236-11.937a.511.511 0 0 1 .541-.455.5.5 0 0 1 .455.541c-.02.227-.524 5.626-4.363 12.346a.497.497 0 0 1-.434.253zm-24.812 14.102a.493.493 0 0 1-.26-.073c-26.877-16.383-37.017-28.747-37.115-28.87a.5.5 0 1 1 .777-.628c.099.122 10.152 12.365 36.857 28.644a.5.5 0 0 1-.259.927z"/><path d="M279.221 97.306s-10.474-9.292-22.365-2.791c-9.106 4.979-11.957 16.17-6.044 27.18l.514 1.646c-8.853-6.413-14.314-22.88-3.665-32.657 11.912-10.938 27.14-2.933 31.56 6.622z"/></g><path d="M397.41 110.648a.5.5 0 0 1-.405-.207c-1.538-2.125-7.507-2.527-12.58-2.193a4.858 4.858 0 0 1-.163.009.5.5 0 0 1-.012-1l.109-.007c3.321-.217 11.281-.4 13.456 2.605a.5.5 0 0 1-.405.793zm-20.27 8.277a.5.5 0 0 1-.44-.737c2.247-4.19 9.478-4.705 9.784-4.725a.516.516 0 0 1 .531.466.5.5 0 0 1-.467.532c-.069.004-6.983.499-8.968 4.2a.498.498 0 0 1-.44.264zm21.489-12.952a.5.5 0 0 1-.428-.241c-1.535-2.528-10.44-2.561-13.743-2.36a.5.5 0 1 1-.06-.998c1.274-.08 12.534-.659 14.659 2.839a.502.502 0 0 1-.428.76zm.683-5.079a.5.5 0 0 1-.366-.159c-1.912-2.054-10.826-2.085-14.097-1.922a.504.504 0 0 1-.523-.475.499.499 0 0 1 .475-.524c1.251-.063 12.303-.525 14.878 2.239a.5.5 0 0 1-.367.841z" fill="#6da2ef"/><path d="M346.64 103.141c-2.121 1.174-8.03 5.437-8.03 5.437 5.459-1.248 22.599 14.711 19.703 19.656l6.67-7.517c4.195-5.683-10.313-22.021-18.343-17.576zm-41.216 64.43c-2.463-.934-3.986-2.261-4.138-3.863-.367-3.856 7.358-7.638 17.585-8.61s18.525 1.289 18.892 5.144-7.358 7.637-17.585 8.609c-5.975.567-11.293.032-14.754-1.28zm-3.312-3.943c.313 3.281 8.549 5.292 17.986 4.396s17.149-4.424 16.838-7.704-8.55-5.291-17.987-4.396-17.149 4.429-16.837 7.704z" fill="#c8ff00"/><path d="M338.455 202.562c-.1 0-.2-.029-.287-.091l-5.874-4.125a.498.498 0 1 1 .574-.818l5.874 4.125a.498.498 0 0 1-.287.909z" fill="#6da2ef"/><path d="M362.875 207.323c-1.878 0-3.952-1.162-6.559-2.621-5.077-2.843-12.043-6.736-23.715-6.265-.262.02-.508-.204-.521-.479a.501.501 0 0 1 .479-.52c11.979-.485 19.355 3.654 24.244 6.392 3.391 1.898 5.634 3.154 7.565 2.119a.501.501 0 0 1 .471.883 4.077 4.077 0 0 1-1.964.491z" fill="#6da2ef"/><path d="M352.815 208.326a.499.499 0 0 1-.451-.285c-1.601-3.352-3.742-5.973-6.546-8.014a.5.5 0 0 1 .588-.809c2.942 2.141 5.186 4.886 6.86 8.392a.5.5 0 0 1-.451.716zm6.191 0a.501.501 0 0 1-.471-.331 9.462 9.462 0 0 0-1.55-2.71.499.499 0 1 1 .752-.659 10.347 10.347 0 0 1 1.739 3.031.501.501 0 0 1-.47.669z" fill="#6da2ef"/><path d="M272.262 174.844a.5.5 0 0 1-.213-.953c.057-.027 5.698-2.734 8.541-7.789a.5.5 0 1 1 .871.49c-3.003 5.339-8.743 8.089-8.986 8.203a.477.477 0 0 1-.213.049zm-1.386-5.733a.5.5 0 0 1-.097-.99c.046-.009 4.587-.948 8.652-3.948a.5.5 0 0 1 .594.804c-4.252 3.136-8.855 4.085-9.049 4.124a.478.478 0 0 1-.1.01z" fill="#fff"/></svg></g><g transform="translate(138.0 652.0) rotate(0.0 175.0 147.0) scale(1.0004001600640255 1.0023182871948726)"><svg width="349.86" height="293.32" viewBox="0 0 349.86 293.32"><linearGradient id="h" gradientUnits="userSpaceOnUse" x1="1" x2="348.86" y1="146.66" y2="146.66"><stop offset="0" stop-color="#030a24"/><stop offset=".003" stop-color="#050c2c"/><stop offset=".019" stop-color="#10124c"/><stop offset=".036" stop-color="#191867"/><stop offset=".056" stop-color="#201d7d"/><stop offset=".079" stop-color="#25218e"/><stop offset=".106" stop-color="#29239a"/><stop offset=".145" stop-color="#2b25a1"/><stop offset=".249" stop-color="#2c25a3"/><stop offset="1" stop-color="#2c25a3"/></linearGradient><linearGradient id="i" gradientUnits="userSpaceOnUse" x1="338.743" x2="57.174" y1="278.634" y2="49.791"><stop offset=".129" stop-color="#2c25a3"/><stop offset=".379" stop-color="#4b61c7"/><stop offset=".601" stop-color="#6490e4"/><stop offset=".711" stop-color="#6da2ef"/></linearGradient><path d="M1 1h347.86v291.32H1z" fill="url(#h)"/><path d="M348.86 1v291.32H1V122.4l34.91-43.45L98.53 1z" fill="#ff4a8b"/><path d="m147.71 292.32-96.58-88.38 31.36-38.66 22.57-27.83 46.85-57.77 9.4-11.6 43.93-54.16 143.62 103.99v130.31l-35.43 44.1" fill="url(#i)"/><g fill="#fff"><path d="M313.429 293.32a1 1 0 0 1-.778-1.626l35.43-44.1a1 1 0 0 1 1.558 1.253l-35.43 44.1a.998.998 0 0 1-.78.373zm-165.72 0a1 1 0 0 1-.675-.262l-96.58-88.38a1 1 0 0 1-.102-1.368l154.11-190.02a1 1 0 0 1 1.363-.18l143.62 103.99a1 1 0 0 1-1.173 1.62L205.42 15.285 52.499 203.839l95.885 87.744a.999.999 0 0 1-.675 1.737z"/><path d="M143.727 158.84a.79.79 0 0 1-.788-.758c-.466-11.329 9.802-22.974 10.239-23.464a.79.79 0 0 1 1.179 1.052c-.103.115-10.28 11.663-9.841 22.348a.789.789 0 0 1-.757.822h-.032z"/><path d="M137.383 156.492a.789.789 0 0 1-.785-.885c.073-.604 1.942-14.92 14.587-25.896 4.476-3.886 7.982-3.442 9.624-1.885 1.716 1.627 2.136 5.21-.997 9.231a88.8 88.8 0 0 1-1.919 2.342c-3.488 4.166-7.83 9.351-5.034 12.102.636.624 1.499.877 2.559.745 3.71-.452 8.59-5.058 13.055-12.321 3.486-5.673 4.521-11.222 2.913-15.625-1.089-2.984-3.328-5.17-6.305-6.154-8.643-2.858-18.686 3.413-29.042 18.14a.79.79 0 1 1-1.293-.909c10.798-15.355 21.46-21.831 30.831-18.731 3.444 1.139 6.034 3.665 7.293 7.112 1.777 4.867.693 10.902-3.052 16.995-4.785 7.784-9.964 12.545-14.209 13.063-1.549.185-2.878-.223-3.857-1.187-3.836-3.773 1.23-9.825 4.931-14.243a90.079 90.079 0 0 0 1.884-2.298c2.527-3.245 2.37-5.962 1.156-7.114-1.256-1.19-4.062-1.055-7.502 1.931-12.167 10.562-14.036 24.751-14.054 24.893a.79.79 0 0 1-.784.694z"/><path d="M133.382 149.592a.791.791 0 0 1-.74-1.067c2.448-6.56 13.46-23.616 23.688-26.878 3.017-.963 5.729-.652 8.053.925 2.053 1.393 3.205 3.298 3.423 5.663.779 8.44-10.788 19.994-11.281 20.481a.79.79 0 1 1-1.111-1.123c.115-.114 11.53-11.516 10.819-19.214-.176-1.897-1.07-3.369-2.736-4.5-1.904-1.292-4.153-1.536-6.686-.728-9.596 3.061-20.391 19.769-22.688 25.926a.79.79 0 0 1-.741.515z"/><path d="M154.095 159.501a8.855 8.855 0 0 1-1.707-.158c-2.678-.521-4.55-2.298-5.139-4.875a.79.79 0 0 1 1.541-.352c.449 1.969 1.834 3.274 3.899 3.676 4.474.876 11.916-2.412 18.406-11.722 3.443-4.939 13.724-21.805 1.443-31.482-6.214-4.896-15.302-2.804-15.393-2.782a.79.79 0 0 1-.368-1.537c.401-.098 9.916-2.299 16.739 3.077 13.366 10.533 2.518 28.401-1.125 33.626-6.156 8.834-13.288 12.529-18.296 12.529z"/><path d="M177.934 147.313a.792.792 0 0 1-.661-1.223c7.464-11.407 7.29-20.235 5.83-25.632-1.504-5.56-4.704-8.95-6.368-9.781a.79.79 0 1 1 .706-1.414c1.985.991 5.538 4.68 7.188 10.782 1.544 5.709 1.751 15.013-6.033 26.91a.788.788 0 0 1-.662.358z"/></g><path d="M209.148 244.525c-8.913 0-16.813-2.688-22.963-7.939-18.693-15.962-15.119-50.945 7.968-77.984 23.088-27.038 57.082-36.046 75.771-20.087 9.083 7.756 13.241 20.158 11.709 34.923-1.526 14.696-8.514 29.988-19.677 43.061l-.38-.325.38.325c-11.162 13.072-25.171 22.37-39.446 26.179-4.631 1.236-9.111 1.847-13.362 1.847zm37.786-112.92c-16.984 0-36.865 9.897-52.021 27.647-22.729 26.619-26.353 60.97-8.079 76.574 8.825 7.536 21.404 9.625 35.419 5.887 14.082-3.758 27.912-12.942 38.944-25.862s17.937-28.019 19.441-42.515c1.498-14.427-2.537-26.523-11.362-34.059-6.089-5.2-13.855-7.672-22.342-7.672z" fill="#b4cff7"/><ellipse cx="228.055" cy="187.551" fill="#6da2ef" rx="47.47" ry="32.706" transform="matrix(.6494 -.7605 .7605 .6494 -62.6635 239.195)"/><path d="M214.027 229.903c-6.633 0-12.511-2-17.089-5.91-13.903-11.871-11.256-37.877 5.902-57.972 17.157-20.092 42.428-26.785 56.332-14.912 13.903 11.872 11.255 37.878-5.903 57.972-8.292 9.711-18.7 16.618-29.308 19.449-3.442.918-6.774 1.373-9.934 1.373zm28.034-83.785c-12.579 0-27.307 7.334-38.537 20.486-16.835 19.718-19.527 45.155-6.002 56.705 6.527 5.574 15.836 7.119 26.208 4.351 10.433-2.784 20.68-9.589 28.855-19.164 16.836-19.717 19.528-45.155 6.003-56.705-4.504-3.844-10.249-5.673-16.527-5.673zm10.866 62.671h.01z" fill="#fff"/><path d="m230.26 174.45-.07.09 9.6 7.46.05-.06zm16.32-.69a8.904 8.904 0 0 0-3.32-5.95c-3.86-3.05-9.45-2.39-12.5 1.46l-2.63 3.32-.09.12 2.22 1.74.17-.21 2.54-3.22c2.09-2.63 5.91-3.08 8.54-1a6.078 6.078 0 0 1 2.26 4.06c.18 1.55-.22 3.16-1.27 4.48l-2.53 3.22-.13.16 2.22 1.73.08-.1 2.58-3.26a8.91 8.91 0 0 0 1.86-6.55z" fill="#fff"/><path d="M226.597 210.624a8.986 8.986 0 0 1-5.591-1.942l-11.966-9.46c-1.892-1.496-3.088-3.639-3.368-6.035s.389-4.757 1.885-6.649l9.46-11.966a8.973 8.973 0 0 1 6.034-3.369 8.996 8.996 0 0 1 6.649 1.885l11.966 9.46c1.892 1.496 3.088 3.639 3.368 6.035s-.389 4.757-1.885 6.649l-9.46 11.966a9.016 9.016 0 0 1-7.092 3.426zm-2.48-38.583c-.319 0-.64.019-.961.056a8.076 8.076 0 0 0-5.434 3.033l-9.46 11.966a8.078 8.078 0 0 0-1.697 5.987 8.077 8.077 0 0 0 3.034 5.433l11.966 9.46c3.515 2.78 8.638 2.183 11.42-1.335l9.46-11.966a8.078 8.078 0 0 0 1.697-5.987 8.077 8.077 0 0 0-3.034-5.433l-11.966-9.46a8.06 8.06 0 0 0-5.025-1.754z" fill="#c8ff00"/><circle cx="226.922" cy="188.472" fill="#fff" r="3.378"/><path d="m223.143 198.699-5.3-4.19 7.341-5.464 1.634 1.291z" fill="#fff"/><path d="M141.657 205.878c-10.571 0-19.915-3.17-27.18-9.373-10.876-9.286-15.768-24.24-13.775-42.106 1.984-17.792 10.565-36.361 24.163-52.285 28.118-32.93 69.212-44.165 91.598-25.048 22.39 19.118 17.729 61.461-10.389 94.391-13.598 15.925-30.593 27.309-47.854 32.057-5.755 1.581-11.31 2.364-16.563 2.364zm47.597-137.119c-20.635 0-44.977 12.209-63.604 34.024-13.465 15.77-21.961 34.141-23.922 51.73-1.954 17.515 2.812 32.149 13.419 41.206s25.808 11.469 42.799 6.797c17.064-4.693 33.878-15.962 47.343-31.731 27.748-32.497 32.46-74.187 10.504-92.936-7.217-6.16-16.435-9.09-26.539-9.09z" fill="#c8ff00"/><path d="M141.371 184.726c-6.444 0-12.048-1.872-16.377-5.567-14.625-12.488-9.818-42.212 10.715-66.259s49.135-33.454 63.763-20.964c7.121 6.081 9.907 16.348 7.843 28.91-2.05 12.47-8.641 25.734-18.559 37.35s-21.985 20.203-33.98 24.181c-4.74 1.569-9.248 2.349-13.405 2.349zm41.709-97.332c-14.395 0-32.424 9.555-46.604 26.161-20.171 23.625-25.028 52.71-10.826 64.836 6.843 5.843 17.073 6.918 28.807 3.026 11.823-3.92 23.731-12.4 33.531-23.877 9.801-11.478 16.311-24.567 18.33-36.858 2.004-12.199-.66-22.135-7.503-27.978-4.219-3.603-9.653-5.31-15.735-5.31z" fill="#c8ff00"/><path d="M174.77 87.85c-.26 2.61-.9 5.5-1.94 8.71-1.61 4.95-4.07 9.71-7.27 14.28-1.38 1.98-2.9 3.94-4.56 5.85a91.848 91.848 0 0 1-6.05 6.36c-3.4 3.25-7.17 6.4-11.24 9.44-7.64 5.73-16.35 11.12-25.76 16.18-5.45 2.93-11.13 5.76-16.98 8.49-6.02 2.81-12.2 5.51-18.48 8.12-27.67 11.47-57.1 21.02-81.49 29.2V80.11c11.29-.06 22.87-.43 34.91-1.16 16.71-1.01 34.32-2.7 53.33-5.2 17.41-2.28 52.65-11.41 72.07-5.67 2.93.86 5.5 2.06 7.59 3.68 4.36 3.35 6.67 8.49 5.87 16.09zm30.469-72.93a1 1 0 0 1-.998-.955l-.59-12.92a1 1 0 1 1 1.998-.09l.59 12.92a1 1 0 0 1-.953 1.044l-.047.001zM.999 213.42a1 1 0 0 1-.166-1.986l50.13-8.48a1 1 0 0 1 .334 1.972l-50.13 8.48a.96.96 0 0 1-.168.014z" fill="#fff"/></svg></g></svg>