<svg height="734" viewBox="0 0 733.988 733.988" width="734" xmlns="http://www.w3.org/2000/svg" xmlns:xlink="http://www.w3.org/1999/xlink"><clipPath id="a"><circle cx="366.994" cy="366.994" r="366.994"/></clipPath><linearGradient id="b" gradientUnits="userSpaceOnUse" x1="102.127" x2="1670.186" y1="170.709" y2="1332.752"><stop offset=".118" stop-color="#aed7ed"/><stop offset=".195" stop-color="#baddef"/><stop offset=".405" stop-color="#d8ebf6"/><stop offset=".611" stop-color="#edf6fb"/><stop offset=".812" stop-color="#fafcfe"/><stop offset="1" stop-color="#fff"/></linearGradient><g clip-path="url(#a)"><path d="m.647.647h732.694v732.694h-732.694z" fill="url(#b)"/><path d="m610.592 191.574c-45.506-105.648-281.248-120.956-336.777-66.574-77.216 75.622-18.566 82.685-132.701 161.754-192.416 133.301-122.812 447.463-10.38 445.631l429.477-.436c82.363-141.276 109.632-402.813 50.38-540.374z" fill="#6e1e27"/><ellipse cx="393.048" cy="462.874" fill="#ed8b80" rx="124.63" ry="123.639" transform="matrix(.16003624 -.98711114 .98711114 .16003624 -126.763 776.778)"/><path d="m527.193 458.576-.058 33.032-.187 106.566-.234 133.694-247.379 1.473.035-177.832v-5.446l.012-86.987z" fill="#d8746c"/><path d="m527.135 491.608-.187 106.566c-20.467 31.653-64.077 48.729-95.636 50.88-78.934 5.354-151.732-71.656-151.941-106.062v-13.412l247.765-37.972z" fill="#a54a48"/><path d="m262.228 188.131c-29.633 209.819-9.764 357.125 47.275 393.699 51.952 33.312 128.047 56.123 209.259-56.325 19.957-27.633 27.033-81.182 29.169-92.963l-3.071-109.014s-47.038-3.059-101.935-8c-139.092-12.52-180.698-127.396-180.698-127.396z" fill="#d8746c"/><path d="m524.115 445.752s5.779 8.172 14.774 11.204c29.753 10.031 63.956-28.958 74.529-64.547 10.587-35.632 5.935-71.151-9.382-86.78-38.714-39.503-77.722 14.805-77.722 14.805s-5.094 136.937-2.199 125.318z" fill="#d8746c"/><path d="m296.165 188.503s-31.497 85.969-49.919 112.066c-18.422 26.098-37.584 38.379-37.584 38.379l30.703-161.191 56.801 10.746z" fill="#6e1e27"/><path d="m288.578 445.752s-5.779 8.172-14.774 11.204c-29.753 10.031-63.956-28.958-74.529-64.547-10.587-35.632-5.935-71.151 9.382-86.78 38.714-39.503 77.722 14.805 77.722 14.805s5.094 136.937 2.199 125.318z" fill="#d8746c"/></g></svg>